<?xml version="1.0" encoding="UTF-8"?>
<svg width="25px" height="20px" viewBox="0 0 25 20" version="1.1" xmlns="http://www.w3.org/2000/svg" xmlns:xlink="http://www.w3.org/1999/xlink">
    <g stroke="none" stroke-width="1" fill-rule="evenodd" transform="translate(-161.000000, -632.000000)" fill="#9B9B9B">
        <path d="M170.686312,634.051282 L168.653061,632.018031 L168.653061,632 L162.020408,632 L161,632 L161,637.769231 L161,652 L186,652 L186,632 L176.578074,632 L174.77551,634.175138 L174.77551,634.051282 L170.686312,634.051282 Z M170.091157,635.589744 L170.070109,635.610792 L167.997779,633.538462 L162.530612,633.538462 L162.530612,636.871795 L172.540757,636.871795 L173.603209,635.589744 L170.091157,635.589744 Z M162.530612,638.410256 L173.608793,638.410256 L177.454263,633.538462 L184.469388,633.538462 L184.469388,650.461538 L162.530612,650.461538 L162.530612,638.410256 Z"></path>
    </g>
</svg>