<?xml version="1.0" encoding="UTF-8"?>
<svg width="30px" height="31px" viewBox="0 0 30 31" version="1.1" xmlns="http://www.w3.org/2000/svg" xmlns:xlink="http://www.w3.org/1999/xlink">
    <g stroke-width="1" fill="#FFFFFF" fill-rule="evenodd">
        <g transform="translate(-1010.000000, -740.000000)">
            <g transform="translate(1009.000000, 736.000000)">
                <path d="M19.4615385,18.9928139 L12.5384615,18.9928139 L12.5384615,17.0706582 L10.2307692,17.0706582 L10.2307692,18.9928139 L3.21665344,18.9928139 L3.21665344,11.3136767 L28.7833466,11.3136767 L28.7833466,18.9928139 L21.7692308,18.9928139 L21.7692308,17.0706582 L19.4615385,17.0706582 L19.4615385,18.9928139 Z M19.4615385,21.2994006 L12.5384615,21.2994006 L12.5384615,23.6059874 L10.2307692,23.6059874 L10.2307692,21.2994006 L3.21665344,21.2994006 L3.21665344,31.7150065 L28.7833466,31.7150065 L28.7833466,21.2994006 L21.7692308,21.2994006 L21.7692308,23.6059874 L19.4615385,23.6059874 L19.4615385,21.2994006 Z M22.5379088,9.00598844 L30.9928139,9.00598844 L30.9928139,34.0059884 L1.00718613,34.0059884 L1.00718613,9.00598844 L9.07747586,9.00598844 L9.07747586,3.99834166 L11.3840626,3.99834166 L11.3840626,3.99944722 L20.231322,3.99944722 L20.231322,3.99834166 L22.5379088,3.99834166 L22.5379088,9.00598844 Z M20.231322,9.00598844 L11.3840626,9.00598844 L11.3840626,6.30713953 L20.231322,6.30713953 L20.231322,9.00598844 Z"></path>
            </g>
        </g>
    </g>
</svg>