<?xml version="1.0" encoding="UTF-8"?>
<svg width="75px" height="75px" viewBox="0 0 75 75" version="1.1" xmlns="http://www.w3.org/2000/svg" xmlns:xlink="http://www.w3.org/1999/xlink">
    <g id="business">
        <path d="M42,46.0014372 L32,46.0014372 L32,52.0043117 L26,52.0043117 L26,46.0014372 L6,46.0014372 L6,69.0043117 L69,69.0043117 L69,46.0014372 L48,46.0014372 L48,52.0043117 L42,52.0043117 L42,46.0014372 Z M42,40.0043117 L42,36.0043117 L48,36.0043117 L48,40.0043117 L69,40.0043117 L69,21.0043117 L6,21.0043117 L6,40.0043117 L26,40.0043117 L26,36.0043117 L32,36.0043117 L32,40.0043117 L42,40.0043117 Z M50,15.0043117 L50,6.00431168 L25.9971255,6.00431168 L25.9971255,15.0043117 L50,15.0043117 Z M55.9971255,15.0043117 L75,15.0043117 L75,75 L-5.68434189e-14,75 L-5.68434189e-14,15.0043117 L20,15.0043117 L20,0 L25.9971255,0 L25.9971255,0.00431167725 L50,0.00431167725 L50,-3.55271368e-15 L55.9971255,-3.55271368e-15 L55.9971255,0.00431167725 L56,6.00431168 L55.9971255,15.0043117 Z"></path>
    </g>
</svg>