<?xml version="1.0" encoding="UTF-8"?>
<svg width="75px" height="75px" viewBox="0 0 75 75" version="1.1" xmlns="http://www.w3.org/2000/svg" xmlns:xlink="http://www.w3.org/1999/xlink">
    <g id="charity">
        <path d="M54.5,0.0573471058 L68.5847885,14.1421356 L64.3421478,18.3847763 L64.3279282,18.3705566 L44.2426407,38.4558441 L44.2279221,38.4411255 L44.2132034,38.4558441 L23,17.2426407 L23.0097239,17.2329167 L19.9189428,14.1421356 L34,0.0610784597 L34,0 L40.5,0 L40.5,0.157353209 L44.2371874,3.8945406 L48,0.131727984 L48,0 L54.5,0 L54.5,0.0573471058 Z M51.9573715,6 L50.6170094,6 L44.2426407,12.3743687 L44.2371874,12.3689154 L44.2317341,12.3743687 L37.8573654,6 L36.5463598,6 L28.3945003,14.1518596 L44.2279221,29.9852814 L60.0852875,14.127916 L51.9573715,6 Z M50,47.2091459 L62.2389355,34.9702104 L66.4815762,39.2128511 L66.4787342,39.215693 L75,47.7369588 L70.7573594,51.9795995 L70.7523697,51.9746099 L48,74.7269795 L48,75 L30,75 L30,74.7426407 L21.2573593,66 L0,66 L0,63 L0,47.5 L0,43 L9.30661392,43 L17.1316305,35.1749834 L17.2000122,35.2433651 L17.2000122,35 L32.2000122,35 L32.2000122,35.0426285 L32.2426407,35 L38.2426407,41 L50,41 L50,45 L50,47.2091459 Z M50,55.6944272 L50,61 L32,61 L32,60.7426407 L22.6749834,51.4176241 L26.9176241,47.1749834 L34.7426407,55 L44,55 L44,47 L36,47 L36,46.7989899 L35.7781746,47.0208153 L29.7573593,41 L19.7918953,41 L12,48.7918953 L12,49 L6,49 L6,60 L23.7000008,60 L23.7000008,60.0426399 L23.7426407,60 L32.7426407,69 L45.2416982,69 L66.509729,47.7319692 L62.2360935,43.4583337 L50,55.6944272 Z"></path>
    </g>
</svg>