<?xml version="1.0" encoding="UTF-8"?>
<svg width="37px" height="31px" viewBox="0 0 37 31" version="1.1" xmlns="http://www.w3.org/2000/svg" xmlns:xlink="http://www.w3.org/1999/xlink">
    <g stroke-width="1" fill="#FFFFFF" fill-rule="evenodd">
        <g transform="translate(-649.000000, -1000.000000)">
            <g transform="translate(647.000000, 995.000000)">
                <path d="M3.73066029,31.8158675 L13.4771065,31.8158675 L16.6273895,34.9661505 L16.6872056,34.9063344 L16.6872056,34.927014 L27.4566321,34.927014 L27.5946074,35.0649892 L38.8097215,23.8498751 L38.7880352,23.8281888 L38.9904714,23.6257527 L32.6191777,17.254459 L30.9938907,18.8797461 L31.0028623,18.8887176 L27.2423152,22.6492647 L22.5423383,22.6492647 L17.9525893,18.0595157 L17.9525893,18.0248499 L10.800861,18.0248499 L10.7875007,18.0114897 L6.17713462,22.6218558 L3.73066029,22.6218558 L2,22.6218558 L2,31.8158675 L3.73066029,31.8158675 Z M4.30754705,29.5173646 L14.3850413,29.5173646 L14.3850413,29.6099926 L14.4534235,29.5416105 L17.536749,32.624936 L26.7840866,32.624936 L35.7615836,23.647439 L32.6281493,20.5140046 L28.6573879,24.484766 L28.6573879,29.5453693 L27.4691581,29.5453693 L27.4691581,29.5519236 L19.514227,29.5519236 L19.4983214,29.5678292 L19.4824157,29.5519236 L19.3927434,29.5519236 L19.3927434,29.4622513 L15.1471689,25.2166768 L16.7724559,23.5913898 L20.4344868,27.2534206 L26.3498408,27.2534206 L26.3498408,24.9477676 L21.6290372,24.9477676 L21.6096522,24.9671526 L16.9658525,20.3233529 L11.7262116,20.3233529 L7.10982069,24.9397438 L7.08172508,24.9116481 L7.08172508,24.9203587 L4.30754705,24.9203587 L4.30754705,29.5173646 Z M13.6384198,10.456331 L13.2485569,10.8461939 L24.0838036,21.6814406 L24.5051788,21.2600654 L24.5428743,21.2977609 L35.378121,10.4625142 L35.3436228,10.4280161 L35.3525804,10.4190585 L29.9136399,4.98011794 L29.8111614,5.08259642 L29.8111614,5 L26.4116794,5 L26.4057148,4.99403538 L26.3997502,5 L26.3498408,5 L26.3498408,5.04990938 L24.4945648,6.90518542 L22.5834147,4.99403538 L22.4675586,5.10989152 L22.4675586,5 L19.0599699,5 L19.0400878,4.98011794 L19.0202058,5 L19.006238,5 L19.006238,5.01396775 L13.6011473,10.4190585 L13.6384198,10.456331 Z M16.4682536,10.8025262 L24.1214991,18.4557718 L32.1301094,10.4471615 L28.9814508,7.29850293 L27.3646116,7.29850293 L24.5159418,10.1471727 L24.4945648,10.1257957 L24.4731878,10.1471727 L21.624518,7.29850293 L19.9722769,7.29850293 L16.4682536,10.8025262 Z"></path>
            </g>
        </g>
    </g>
</svg>