<?xml version="1.0" encoding="UTF-8"?>
<svg width="17px" height="24px" viewBox="0 0 17 24" version="1.1" xmlns="http://www.w3.org/2000/svg" xmlns:xlink="http://www.w3.org/1999/xlink">
    <g stroke-width="1" fill="#6C6C6C" fill-rule="evenodd">
        <g transform="translate(-417.000000, -482.000000)" >
            <g transform="translate(403.000000, 470.000000)">
                <path d="M16.6935253,17.9765182 L20.5966695,14.0396761 L20.8507463,14.0396761 L20.8507463,17.9765182 L16.6935253,17.9765182 Z M15.7761194,19.6988866 L15.7761194,33.9699393 L29.2238806,33.9699393 L29.2238806,14.0396761 L22.6268657,14.0396761 L22.6268657,19.6988866 L21.358209,19.6988866 L15.7761194,19.6988866 Z M20.0939029,12.3173077 L31,12.3173077 L31,35.6923077 L14,35.6923077 L14,18.2873119 L20.0939029,12.3173077 Z M17.5522388,25.8502024 L27.7014925,25.8502024 L27.7014925,27.5725709 L17.5522388,27.5725709 L17.5522388,25.8502024 Z M17.5522388,29.7870445 L27.7014925,29.7870445 L27.7014925,31.509413 L17.5522388,31.509413 L17.5522388,29.7870445 Z M17.5522388,21.9133603 L27.7014925,21.9133603 L27.7014925,23.6357287 L17.5522388,23.6357287 L17.5522388,21.9133603 Z" id="Combined-Shape"></path>
            </g>
        </g>
    </g>
</svg>