<?xml version="1.0" encoding="UTF-8"?>
<svg width="75px" height="75px" viewBox="0 0 75 75" version="1.1" xmlns="http://www.w3.org/2000/svg" xmlns:xlink="http://www.w3.org/1999/xlink">
    <g id="design">
        <path d="M5.06251068,50.4078397 L4.90021859,50.2455476 L53.0280586,2.11770765 L53.0773933,2.16704241 L55.2444357,-1.77635684e-15 L75.0074125,19.7629768 L70.7629768,24.0074125 L70.7313612,23.9757969 L66.9757969,27.7313612 L67.0074125,27.7629768 L62.7629768,32.0074125 L62.7313612,31.9757969 L28.9757969,65.7313612 L29.0074125,65.7629768 L24.8807869,69.8896023 L24.8828273,69.8916427 L24.8776918,69.8926975 L24.7629768,70.0074125 L24.7313612,69.9757969 L24.6637559,70.0434022 L24.5751837,69.95483 L0.0114932616,75 L5.06251068,50.4078397 Z M20.4459469,65.6903826 L9.31622835,54.5606641 L7.57941755,63.4405184 L9.36194964,65.2230506 L11.3461051,67.2072062 L20.4459469,65.6903826 Z M13.4300246,50.1855888 L24.7408733,61.4964376 L58.4964376,27.7408733 L47.1855888,16.4300246 L13.4300246,50.1855888 Z M51.4300246,12.1855888 L62.7408733,23.4964376 L66.4964376,19.7408733 L55.1855888,8.43002456 L51.4300246,12.1855888 Z"></path>
    </g>
</svg>