<?xml version="1.0" encoding="UTF-8"?>
<svg width="30px" height="31px" viewBox="0 0 30 31" version="1.1" xmlns="http://www.w3.org/2000/svg" xmlns:xlink="http://www.w3.org/1999/xlink">
    <g stroke-width="1" fill-rule="evenodd"  fill="#FFFFFF">
        <g transform="translate(-275.000000, -740.000000)">
            <g transform="translate(274.000000, 736.000000)">
                <path d="M2.93699194,24.7878096 L2.87823916,24.7290568 L22.5535848,5.05371119 L22.5795472,5.07967366 L23.4006844,4.25853654 L31.0018293,11.8596814 L29.369354,13.4921567 L29.3502066,13.4730093 L27.9079062,14.9153097 L27.9305029,14.9379064 L26.2980276,16.5703816 L26.2754309,16.547785 L12.120742,30.7024739 L12.1320772,30.713809 L10.4996019,32.3462843 L10.4882667,32.3349492 L10.4795997,32.3436162 L10.4447802,32.3087968 L0.993539707,34.25 L2.93699194,24.7878096 Z M4.56733538,26.4140178 L8.8270173,30.6736997 L5.35300581,31.2527716 L3.90427982,29.8040455 L4.56733538,26.4140178 Z M20.2962877,10.5686417 L6.1415988,24.7233307 L10.4919252,29.0736571 L24.6466142,14.9189682 L20.2962877,10.5686417 Z M21.928763,8.93616646 L23.3710634,7.49386611 L27.7213898,11.8441926 L26.2790895,13.2864929 L21.928763,8.93616646 Z"></path>
            </g>
        </g>
    </g>
</svg>