<?xml version="1.0" encoding="UTF-8"?>
<svg width="75px" height="75px" viewBox="0 0 75 75" version="1.1" xmlns="http://www.w3.org/2000/svg" xmlns:xlink="http://www.w3.org/1999/xlink">
    <g id="develop">
        <path d="M5.0627312,50.4080602 L4.90021859,50.2455476 L18.7435187,36.4022475 L0.0167966615,17.6755254 L3.19687504,14.495447 L3.19465316,14.4932251 L14.5083617,3.17951665 L14.5132979,3.18445292 L17.6977508,7.10542736e-15 L36.4217585,18.7240077 L53.0280586,2.11770765 L53.0773933,2.16704241 L55.2444357,1.24344979e-14 L75.0074125,19.7629768 L70.7629768,24.0074125 L70.7313612,23.9757969 L28.930726,65.7764321 L28.9601974,65.8059035 L24.8779733,69.8881276 L24.8828197,69.892974 L24.8706214,69.8954794 L24.7157616,70.0503392 L24.6862903,70.0208678 L24.6637559,70.0434022 L24.5762868,69.9559332 L0.0114856322,75.0013313 L5.0627312,50.4080602 Z M20.3698238,65.7044014 L9.3016932,54.6362708 L7.57940992,63.4418497 L9.36194201,65.2243819 L11.3460975,67.2085375 L20.3698238,65.7044014 Z M13.3849536,50.2306598 L24.6958024,61.5415085 L66.4964376,19.7408733 L55.1855888,8.43002456 L13.3849536,50.2306598 Z M29.0457476,26.1000186 L25.0167968,22.0710678 L28.150167,18.9376976 L24.3928077,15.1803382 L21.2594374,18.3137085 L17.0167968,14.0710678 L20.150167,10.9376976 L17.6928146,8.48034511 L8.49985615,17.6733035 L22.9861594,32.1596068 L29.0457476,26.1000186 Z M51.9950984,42.782629 L56.2377391,38.5399883 L74.9734001,57.2756493 L70.7307594,61.51829 L70.7229704,61.5105009 L61.530012,70.7034594 L57.2924459,74.9511747 L38.5594993,56.2182281 L42.80214,51.9755874 L57.2873713,66.4608187 L66.4803297,57.2678603 L64.5643806,55.3519111 L61.6025832,58.3137085 L57.3599425,54.0710678 L60.3217399,51.1092704 L56.5643806,47.3519111 L53.6025832,50.3137085 L49.3599425,46.0710678 L52.3217399,43.1092704 L51.9950984,42.782629 Z"></path>
    </g>
</svg>