<?xml version="1.0" encoding="UTF-8"?>
<svg width="30px" height="30px" viewBox="0 0 30 30" version="1.1" xmlns="http://www.w3.org/2000/svg" xmlns:xlink="http://www.w3.org/1999/xlink">
    <g stroke-width="1" fill-rule="evenodd" fill="#FFFFFF">
        <g transform="translate(-644.000000, -740.000000)">
            <g transform="translate(644.000000, 736.000000)">
                <path d="M3.84275714,30.2858078 L4.56822102,26.2448525 L8.54849073,30.2251222 L8.33909402,30.4345189 L4.65319052,31.0962411 L3.84275714,30.2858078 Z M9.86851926,32.0306158 L9.87629943,32.0383959 L9.8884183,32.0262771 L10.3404789,31.9277117 L10.3051459,31.8923788 L11.891361,30.3061637 L11.7499464,30.164749 L14.9556678,26.9590276 L20.0921972,32.095557 L19.9595395,32.2282148 L21.5904539,33.8591292 L21.7231117,33.7264715 L21.8665513,33.8699111 L23.4370925,32.2993699 L23.2936529,32.1559303 L27.5974781,27.852105 L27.6352646,27.8898916 L29.2058058,26.3193503 L22.4005754,19.51412 L29.2466717,12.6680236 L29.0394489,12.4608008 L30.0301866,11.4700631 L22.7009943,4.14087082 L21.0700799,5.77178524 L21.1666185,5.86832384 L14.9606989,12.0742434 L8.79408041,5.90762496 L8.92992013,5.77178524 L7.29900571,4.14087082 L7.163166,4.27671054 L6.91664206,4.0301866 L5.34610085,5.60072782 L5.59262478,5.84725175 L-0.0301866042,11.4700631 L0.372580716,11.8728305 L0.12102568,12.1243855 L7.51579124,19.5191511 L2.54710711,24.4878352 L2.94800879,24.8887369 L0.96768225,33.971316 L9.86851926,32.0306158 Z M10.1794052,28.5942078 L27.0359538,11.7376592 L22.7371597,7.43886505 L5.88061104,24.2954137 L10.1794052,28.5942078 Z M16.526209,25.3884864 L21.6627384,30.5250158 L25.9665637,26.2211906 L25.0672802,25.3219072 L23.064791,27.3243963 L21.4338766,25.6934819 L23.4363658,23.6909927 L21.8658246,22.1204515 L19.9237086,24.0625675 L18.8879183,23.0267771 L16.526209,25.3884864 Z M9.08633246,17.9486098 L2.91971399,11.7819914 L7.2235392,7.47816617 L8.22945153,8.48407849 L6.51373511,10.1997949 L8.14464953,11.8307093 L9.86036595,10.1149929 L11.1641192,11.4187462 L9.39306066,13.1898047 L11.0239751,14.8207191 L12.7950336,13.0496606 L13.3901577,13.6447846 L9.08633246,17.9486098 Z"></path>
            </g>
        </g>
    </g>
</svg>