<?xml version="1.0" encoding="UTF-8"?>
<svg width="75px" height="75px" viewBox="0 0 75 75" version="1.1" xmlns="http://www.w3.org/2000/svg" xmlns:xlink="http://www.w3.org/1999/xlink">
    <g id="document">
        <path d="M17.9158815,19 L32,19 L32,5.74736842 L31.1182447,5.74736842 L17.9158815,19 Z M14.9552239,25 L14.9552239,69.2526316 L60.0447761,69.2526316 L60.0447761,5.74736842 L38,5.74736842 L38,25 L34,25 L14.9552239,25 Z M29.432498,0 L66,0 L66,75 L9,75 L9,19.9212976 L29.432498,0 Z M21,44 L54,44 L54,50 L21,50 L21,44 Z M21,56 L54,56 L54,62 L21,62 L21,56 Z M21,32 L54,32 L54,38 L21,38 L21,32 Z"></path>
    </g>
</svg>