<?xml version="1.0" encoding="UTF-8"?>
<svg width="75px" height="75px" viewBox="0 0 75 75" version="1.1" xmlns="http://www.w3.org/2000/svg" xmlns:xlink="http://www.w3.org/1999/xlink">
    <g id="startups">
        <path d="M41,58.4422756 L35,58.4422756 L35,64 L29,64 L29,61.0127683 L20.0136016,69.9991667 L20,69.9855651 L20,70 L15,70 L15,50 L15.0286887,50 L20,45.0286887 L20,17.5 L20.034462,17.5 L20,17.465538 L37.465538,-2.48689958e-14 L37.4790894,0.0135513262 L37.4926407,-2.48689958e-14 L54.9581787,17.465538 L54.9237168,17.5 L55,17.5 L55,45.0077421 L59.9922579,50 L60,50 L60,50.0077421 L60.0019197,50.0096618 L60,50.0115815 L60,70 L55,70 L55,69.9765752 L47,61.9765752 L47,64 L41,64 L41,58.4422756 Z M36,69 L40,69 L40,64 L46,64 L46,70 L42.5,70 L42.5,75 L33,75 L33,70 L30,70 L30,64 L36,64 L36,69 Z M55,61.4912939 L55,53.4930235 L49.0417646,47.5347881 L49.0765527,47.5 L49,47.5 L49,19.9926407 L37.4790894,8.47173005 L26,19.9508194 L26,47.5 L25.9394096,47.5 L25.9766898,47.5372802 L20,53.51397 L20,61.527487 L28.9818824,52.5456046 L28.9818824,52.4422756 L29.0852113,52.4422756 L29.1352788,52.3922081 L29.1853463,52.4422756 L45.8327969,52.4422756 L45.8918893,52.3831832 L45.9509817,52.4422756 L46,52.4422756 L46,52.4912939 L55,61.4912939 Z M33,32 L29,32 L29,22 L33,22 L33,18 L42.5,18 L42.5,22 L46,22 L46,32 L42.5,32 L42.5,35 L33,35 L33,32 Z M35,29 L40,29 L40,24 L35,24 L35,29 Z"></path>
    </g>
</svg>