<?xml version="1.0" encoding="UTF-8"?>
<svg width="17px" height="30px" viewBox="0 0 17 30" version="1.1" xmlns="http://www.w3.org/2000/svg" xmlns:xlink="http://www.w3.org/1999/xlink">
   
    <g stroke-width="1" fill-rule="evenodd" fill="#FFFFFF">
        <g transform="translate(-271.000000, -999.000000)">
            <g transform="translate(269.000000, 995.000000)">
                <path d="M11.5844543,27.8562925 L9.28418529,27.8562925 L9.28418529,29.7692308 L6.98391625,29.7692308 L6.98391625,28.9978757 L3.91689087,32.0649011 L3.91689087,32.0870617 L3.89473024,32.0870617 L3.86184943,32.1199425 L3.82896862,32.0870617 L2,32.0870617 L2,24.8105299 L1.99606322,24.8065931 L2,24.8026564 L2,24.7793694 L2.02328696,24.7793694 L3.53351269,23.2691437 L3.53351269,10.9662646 L3.52234682,10.9550988 L3.53351269,10.9439329 L3.53351269,10.9332156 L3.54423003,10.9332156 L8.84082973,5.63661585 L8.83337423,5.62916036 L10.4599101,4.00262452 L17.3542013,10.8969157 L17.3351269,10.9159901 L17.3351269,23.1377833 L18.976713,24.7793694 L19,24.7793694 L19,24.8026564 L19.0039368,24.8065931 L19,24.8105299 L19,32.0870617 L17.1710314,32.0870617 L17.1381506,32.1199425 L17.1052698,32.0870617 L17.0831091,32.0870617 L17.0831091,32.0649011 L13.8847234,28.8665153 L13.8847234,29.7692308 L11.5844543,29.7692308 L11.5844543,27.8562925 Z M9.66756347,31.6923077 L9.66756347,29.7692308 L7.36729443,29.7692308 L7.36729443,32.0769231 L8.51742895,32.0769231 L8.51742895,34 L12.1595216,34 L12.1595216,32.0769231 L13.5013452,32.0769231 L13.5013452,29.7692308 L11.2010762,29.7692308 L11.2010762,31.6923077 L9.66756347,31.6923077 Z M17.0831091,28.8118294 L13.6245641,25.3532844 L13.2713181,25.7065304 L13.2713181,25.5486002 L7.65482806,25.5486002 L7.65482806,25.6326766 L7.37543586,25.3532844 L3.91689087,28.8118294 L3.91689087,26.1388372 L6.07027637,23.9854517 L5.78727133,23.7024466 L5.83378173,23.7024466 L5.83378173,11.8967355 L10.4673656,7.26315169 L15.0348579,11.830644 L15.0348579,23.7731109 L15.1420643,23.7731109 L14.9297236,23.9854517 L17.0831091,26.1388372 L17.0831091,28.8118294 Z M8.51742895,17.4716771 L7.36729443,17.4716771 L7.36729443,13.6255232 L8.6489035,13.6255232 L8.6489035,12.0870617 L12.2909961,12.0870617 L12.2909961,13.6255232 L13.5013452,13.6255232 L13.5013452,17.4716771 L12.1595216,17.4716771 L12.1595216,18.6255232 L8.51742895,18.6255232 L8.51742895,17.4716771 Z M9.66756347,16.3178309 L9.66756347,14.394754 L11.2010762,14.394754 L11.2010762,16.3178309 L9.66756347,16.3178309 Z"></path>
            </g>
        </g>
    </g>
</svg>