<?xml version="1.0" encoding="UTF-8" standalone="no"?>
<svg width="31px" height="26px" viewBox="0 0 31 26" version="1.1" xmlns="http://www.w3.org/2000/svg" xmlns:xlink="http://www.w3.org/1999/xlink" xmlns:sketch="http://www.bohemiancoding.com/sketch/ns">
    <!-- Generator: Sketch 3.3.2 (12043) - http://www.bohemiancoding.com/sketch -->
    <title>Rectangle 60</title>
    <desc>Created with Sketch.</desc>
    <defs></defs>
    <g id="Redesigned-Home" stroke="none" stroke-width="1" fill="none" fill-rule="evenodd" sketch:type="MSPage">
        <g id="iPhone-6" sketch:type="MSArtboardGroup" transform="translate(-323.000000, -575.000000)" fill="#FFFFFF">
            <g id="Rectangle-43-+-Path-558-+-Rectangle-42-Copy-2" sketch:type="MSLayerGroup" transform="translate(300.069380, 557.356621)">
                <path d="M27.1823122,39.5543098 L27.1823122,18.1234014 L53.1690308,18.1234014 L53.1690308,33.6681251 C53.1690308,38.6388422 49.1425942,42.6684046 44.1772166,42.6684046 L25.8810427,42.6684046 C25.8810427,42.6684046 27.1823122,41.7133094 27.1823122,39.5543098 Z M30.9214991,22.1031775 L49.7664671,22.1031775 L49.7664671,23.5693207 L30.9214991,23.5693207 L30.9214991,22.1031775 Z M30.9214991,25.2893438 L49.7664671,25.2893438 L49.7664671,26.755487 L30.9214991,26.755487 L30.9214991,25.2893438 Z M41.9076473,28.4755101 L49.7664671,28.4755101 L49.7664671,29.9416532 L41.9076473,29.9416532 L41.9076473,28.4755101 Z M41.9076473,31.2690142 L49.7664671,31.2690142 L49.7664671,32.7351574 L41.9076473,32.7351574 L41.9076473,31.2690142 Z M41.9076473,34.2052392 L49.7664671,34.2052392 L49.7664671,35.6713823 L41.9076473,35.6713823 L41.9076473,34.2052392 Z M41.9076473,37.1442238 L49.7664671,37.1442238 L49.7664671,38.610367 L41.9076473,38.610367 L41.9076473,37.1442238 Z M30.9214991,28.4755101 L40.3439831,28.4755101 L40.3439831,38.610367 L30.9214991,38.610367 L30.9214991,28.4755101 Z M26.5058075,23.2575404 L26.5058075,39.0299216 C26.5058075,39.0299216 26.573722,40.0352641 26.2344114,40.9139353 C25.8951008,41.7926065 24.9591267,42.3359477 24.9591267,42.3359477 C24.9591267,42.3359477 23.1749924,41.9312533 23.1749924,40.4757489 L23.1749924,39.029922 L23.1749924,23.2575404 L26.5058075,23.2575404 Z" id="Rectangle-60" sketch:type="MSShapeGroup"></path>
            </g>
        </g>
    </g>
</svg>