<?xml version="1.0" encoding="UTF-8" standalone="no"?>
<svg width="43px" height="33px" viewBox="0 0 43 33" version="1.1" xmlns="http://www.w3.org/2000/svg" xmlns:xlink="http://www.w3.org/1999/xlink" xmlns:sketch="http://www.bohemiancoding.com/sketch/ns">
    <!-- Generator: Sketch 3.3.2 (12043) - http://www.bohemiancoding.com/sketch -->
    <title>Path 558 Copy + Rectangle 56 + Rectangle 59</title>
    <desc>Created with Sketch.</desc>
    <defs></defs>
    <g id="Redesigned-Home" stroke="none" stroke-width="1" fill="none" fill-rule="evenodd" sketch:type="MSPage">
        <g id="iPhone-6" sketch:type="MSArtboardGroup" transform="translate(-241.000000, -572.000000)">
            <g id="Rectangle-43-+-Path-558-+-Rectangle-42-Copy-3" sketch:type="MSLayerGroup" transform="translate(225.138760, 557.356621)">
                <g id="Path-558-Copy-+-Rectangle-56-+-Rectangle-59" transform="translate(19.000000, 17.000000)" sketch:type="MSShapeGroup">
                    <path d="M14.54466,13.1472667 C21.9674833,13.7625164 21.9674827,22.1290118 21.9674827,22.1290118 L5.35604218,22.1290118 C5.35604218,22.1290118 5.35604218,13.773286 12.7645378,13.1484647 C10.8973087,12.7444394 9.49897963,11.0917346 9.49897963,9.11434293 C9.49897963,6.8341972 11.3582784,4.98577387 13.6518398,4.98577387 C15.9454011,4.98577387 17.8046999,6.8341972 17.8046999,9.11434293 C17.8046999,11.0897862 16.4091252,12.741182 14.54466,13.1472667 Z" id="Path-558-Copy-2" fill="#FFFFFF"></path>
                    <path d="M18.3368188,6.85379533 L31.5029899,6.85379533 L31.5029899,8.83800508 L19.0049245,8.83800508 C18.9564357,8.10857645 18.717389,7.43092402 18.3368188,6.85379533 Z M17.9403091,12.8064246 L31.5029899,12.8064246 L31.5029899,14.7906343 L20.650143,14.7906343 C19.955366,13.9720627 19.0695869,13.2680916 17.9403091,12.8064246 L17.9403091,12.8064246 Z M22.6485995,18.7590538 L31.5029899,18.7590538 L31.5029899,20.7432635 L23.0571159,20.7432635 C22.9804214,20.1851666 22.8546846,19.4983783 22.6485995,18.7590538 L22.6485995,18.7590538 Z" id="Rectangle-56" fill="#FFFFFF"></path>
                    <rect id="Rectangle-59" stroke="#FFFFFF" stroke-width="3" x="0.426456984" y="0.667361835" width="36.0777058" height="26.0427529" rx="3"></rect>
                </g>
            </g>
        </g>
    </g>
</svg>