<?xml version="1.0" encoding="UTF-8" standalone="no"?>
<svg width="44px" height="27px" viewBox="0 0 44 27" version="1.1" xmlns="http://www.w3.org/2000/svg" xmlns:xlink="http://www.w3.org/1999/xlink" xmlns:sketch="http://www.bohemiancoding.com/sketch/ns">
    <!-- Generator: Sketch 3.3.2 (12043) - http://www.bohemiancoding.com/sketch -->
    <title>Path 565</title>
    <desc>Created with Sketch.</desc>
    <defs></defs>
    <g id="Redesigned-Home" stroke="none" stroke-width="1" fill="none" fill-rule="evenodd" sketch:type="MSPage">
        <g id="iPhone-6" sketch:type="MSArtboardGroup" transform="translate(-166.000000, -574.000000)" fill="#FFFFFF">
            <path d="M174.770076,584.831738 L185.623194,580.505132 L188.758922,581.335468 L177.490252,585.837356 L188.20142,589.70696 L209.378428,581.874197 L188.20142,574.57734 L166.36437,581.874197 L172.982062,584.204984 L171.212323,589.892656 C171.212323,589.892656 170.145616,590.304294 169.856891,591.611402 C169.568166,592.91851 170.84573,593.798976 170.84573,593.798976 L168.625873,599.881044 L172.353749,600.449958 L172.106671,593.999852 C172.106671,593.999852 173.674534,593.710012 173.930012,592.29258 C174.18549,590.875149 173.068912,590.213917 173.068912,590.213917 L174.770076,584.831738 L174.770076,584.831738 Z M175.39061,586.322866 L188.299587,590.855026 L201.204189,586.014932 L201.204189,595.255064 C201.204189,595.255064 197.134043,599.474349 188.299587,599.474349 C179.46513,599.474349 174.018117,594.134976 174.018117,594.134976 C174.018117,594.134976 174.840983,593.903121 175.075812,592.311115 C175.310642,590.719108 174.175341,589.888111 174.175341,589.888111 L175.39061,586.322866 Z" id="Path-565" sketch:type="MSShapeGroup"></path>
        </g>
    </g>
</svg>