<?xml version="1.0" encoding="UTF-8"?>
<svg width="450px" height="142px" viewBox="0 0 450 142" version="1.1" xmlns="http://www.w3.org/2000/svg" xmlns:xlink="http://www.w3.org/1999/xlink">
    <g stroke="none" stroke-width="1" fill="none" fill-rule="evenodd">
        <g transform="translate(-524.000000, -2408.000000)">
            <g transform="translate(523.000000, 2402.000000)">
                <g opacity="0.111922554" transform="translate(379.671143, 76.671143) rotate(-5.000000) translate(-379.671143, -76.671143) translate(309.171143, 6.171143)">
                    <path d="M49.1691755,64.5676695 C49.1691755,64.8430042 49.0118438,65.0790018 48.6971755,65.2756695 C48.5201747,65.5116706 48.3038435,65.6296695 48.0481755,65.6296695 C47.8515079,65.6296695 47.6548432,65.5313371 47.4581755,65.3346695 L39.3161755,57.2516695 L31.1151755,65.3346695 C30.9185079,65.5313371 30.7218432,65.6296695 30.5251755,65.6296695 C30.3285079,65.6296695 30.1023435,65.5116706 29.8466755,65.2756695 C29.5910076,65.0396683 29.4631755,64.8036706 29.4631755,64.5676695 C29.4631755,64.4300021 29.522175,64.2726703 29.6401755,64.0956695 L38.3131755,51.6466695 C38.5491767,51.3320012 38.8835067,51.1746695 39.3161755,51.1746695 C39.7095108,51.1746695 40.0143411,51.3320012 40.2306755,51.6466695 L48.9331755,64.0956695 C49.0905097,64.2530036 49.1691755,64.4103353 49.1691755,64.5676695 Z M78.8756755,94.3921695 C78.8756755,95.4541748 78.6396779,95.9851695 78.1676755,95.9851695 L50.1721755,95.9851695 C49.6608397,95.9851695 49.4051755,95.4541748 49.4051755,94.3921695 C49.4051755,93.2908306 49.6411732,92.7401695 50.1131755,92.7401695 L78.1676755,92.7401695 C78.6396779,92.7401695 78.8756755,93.2908306 78.8756755,94.3921695 Z M98.9061755,64.5676695 C98.9061755,64.8430042 98.7488438,65.0790018 98.4341755,65.2756695 C98.2571747,65.5116706 98.0408435,65.6296695 97.7851755,65.6296695 C97.5885079,65.6296695 97.3918432,65.5313371 97.1951755,65.3346695 L89.0531755,57.2516695 L80.8521755,65.3346695 C80.6555079,65.5313371 80.4588432,65.6296695 80.2621755,65.6296695 C80.0655079,65.6296695 79.8393435,65.5116706 79.5836755,65.2756695 C79.3280076,65.0396683 79.2001755,64.8036706 79.2001755,64.5676695 C79.2001755,64.4300021 79.259175,64.2726703 79.3771755,64.0956695 L88.0501755,51.6466695 C88.2861767,51.3320012 88.6205067,51.1746695 89.0531755,51.1746695 C89.4465108,51.1746695 89.7513411,51.3320012 89.9676755,51.6466695 L98.6701755,64.0956695 C98.8275097,64.2530036 98.9061755,64.4103353 98.9061755,64.5676695 Z" fill="#000000"></path>
                    <circle stroke="#000000" stroke-width="8" cx="70.5" cy="70.5" r="66.5"></circle>
                </g>
                <g transform="translate(0.000000, 7.000000)">
                    <path d="M12.9251787,54.5120883 L12.6731787,54.1760883 C18.0071787,51.4040883 21.4091787,47.6240883 23.1731787,42.1220883 C24.8111787,37.0820883 24.9791787,29.8160883 24.8111787,21.9620883 C22.5431787,22.0040883 20.5271787,22.0880883 18.5951787,22.2560883 L18.2171787,20.8280883 C21.2831787,21.0800883 24.2651787,21.1640883 27.7931787,21.1640883 L33.9251787,21.1640883 C35.3531787,19.1900883 35.9411787,18.6860883 36.3191787,18.6860883 C36.7391787,18.6860883 37.5791787,19.1900883 39.0491787,20.5340883 C41.1071787,22.4240883 41.4431787,22.8020883 41.4431787,23.3060883 C41.4431787,23.7680883 40.9811787,24.1040883 39.7211787,24.8600883 C39.7211787,34.5200883 39.6791787,43.3400883 38.8391787,48.0440883 C38.4191787,50.3960883 37.5791787,52.0340883 35.6471787,53.3780883 C34.1771787,54.3860883 32.2031787,55.0160883 30.8171787,55.0160883 C30.1451787,55.0160883 29.8931787,54.8900883 29.7251787,54.0500883 C29.1791787,51.8660883 28.0871787,50.7320883 24.8111787,49.5980883 L24.8951787,49.1360883 C25.8611787,49.1780883 26.7431787,49.2200883 27.5411787,49.2200883 C28.5911787,49.2200883 29.5571787,49.1780883 30.4811787,49.0940883 C32.2031787,48.9680883 33.1691787,48.1700883 33.5891787,46.1540883 C34.4711787,41.9960883 34.5551787,35.1500883 34.5971787,21.9200883 L31.6151787,21.9200883 C31.5311787,22.2980883 31.1111787,22.5080883 30.1871787,22.8020883 C30.1031787,31.1600883 29.6411787,38.6780883 27.5411787,43.0880883 C24.5591787,49.3880883 19.4771787,52.7060883 12.9251787,54.5120883 Z M16.7891787,30.4040883 L17.1251787,30.1940883 C21.7451787,32.4620883 22.1231787,32.9240883 22.1231787,33.5960883 C22.1231787,34.1420883 21.3671787,34.3520883 20.1071787,34.2680883 C18.7211787,35.6120883 17.5871787,36.5360883 16.2011787,37.5440883 C19.0151787,38.5520883 20.3591787,40.0640883 20.3591787,42.0380883 C20.3591787,44.0540883 19.0991787,45.0620883 17.5451787,45.0620883 C16.2011787,45.0620883 15.5711787,44.2220883 15.4031787,42.7520883 C15.1931787,40.5680883 14.1431787,38.5100883 12.3371787,37.4180883 L12.2951787,42.6680883 L12.4631787,52.5800883 C12.4631787,54.3440883 10.8671787,54.9740883 8.85117866,54.9740883 C7.46517866,54.9740883 7.25517866,54.8480883 7.25517866,53.4620883 L7.80117866,37.4600883 C5.86917866,38.7620883 3.85317866,39.8960883 1.71117866,40.8200883 L1.45917866,40.4840883 C6.16317866,36.7460883 11.0771787,30.7820883 13.0091787,24.2720883 L9.27117866,24.2720883 C7.04517866,24.2720883 4.44117866,24.3560883 2.46717866,24.6080883 L2.08917866,23.1800883 C3.89517866,23.3900883 6.03717866,23.4740883 7.96917866,23.5160883 L7.96917866,18.5600883 C7.96917866,17.0060883 7.88517866,16.4180883 7.54917866,15.6620883 L7.84317866,15.3680883 C13.2611787,16.0820883 14.3531787,16.5020883 14.3531787,17.0900883 C14.3531787,17.6360883 13.9751787,17.8880883 12.6731787,18.3500883 L12.6731787,23.5160883 L12.9251787,23.5160883 C14.3111787,21.6680883 14.8151787,21.2060883 15.1511787,21.2060883 C15.6131787,21.2060883 16.2851787,21.5420883 17.7971787,22.9700883 C19.1411787,24.2300883 19.4351787,24.6080883 19.4351787,24.9860883 C19.4351787,25.3640883 19.1411787,25.7000883 17.7971787,25.9520883 C16.2851787,28.9340883 14.4791787,31.4540883 12.3791787,33.5960883 L12.3371787,36.6200883 C13.0931787,36.7040883 13.8491787,36.8720883 14.5631787,37.0400883 C15.3611787,35.4860883 15.8651787,34.1000883 16.4111787,32.4200883 C16.6211787,31.7900883 16.7471787,31.2020883 16.7891787,30.4040883 Z M60.7551787,27.0620883 C64.0671787,25.0460883 67.7631787,23.7500883 71.6031787,23.3660883 C72.0351787,22.0220883 72.4671787,20.7260883 72.7071787,19.7180883 C72.9951787,18.6140883 73.1391787,17.5580883 73.1391787,16.9340883 C73.1391787,16.5500883 73.0911787,16.2140883 72.5631787,15.9260883 C72.0831787,15.6860883 71.4111787,15.4940883 70.5471787,15.3500883 C70.2591787,15.3020883 70.1151787,15.1580883 70.1151787,14.9660883 C70.1151787,14.8220883 70.2111787,14.6300883 70.4511787,14.4860883 C71.3631787,13.8620883 72.2271787,13.5260883 73.2351787,13.5260883 C74.4831787,13.5260883 76.0191787,14.2940883 76.7871787,14.8220883 C78.1311787,15.7820883 78.8991787,16.5020883 78.8991787,17.6540883 C78.8991787,18.2300883 78.7071787,18.6140883 78.3711787,18.9980883 C78.0351787,19.3820883 77.7951787,19.8140883 77.5551787,20.3420883 C77.2191787,21.1100883 76.7391787,22.2620883 76.3071787,23.5100883 C79.1391787,23.9900883 81.7791787,25.1420883 83.8431787,26.7740883 C87.0111787,29.2220883 89.2671787,33.0620883 89.2671787,37.8620883 C89.2671787,41.7980883 87.2031787,45.0620883 83.7951787,47.1260883 C79.9071787,49.5260883 73.4751787,51.3500883 65.6991787,51.6860883 C65.4591787,51.6860883 65.3151787,51.4940883 65.3151787,51.3500883 C65.3151787,51.1580883 65.4111787,51.0140883 65.6511787,50.9660883 C70.2111787,49.9100883 75.1071787,47.8940883 78.3711787,45.1580883 C81.1071787,42.8540883 82.8351787,39.6380883 82.8351787,35.7020883 C82.8351787,32.7260883 81.5871787,29.3180883 79.4271787,27.2540883 C78.3231787,26.1980883 77.0751787,25.6220883 75.5871787,25.3820883 C73.8591787,29.6540883 71.9391787,33.9740883 69.2991787,37.8140883 C69.8271787,38.1980883 70.3071787,38.5820883 70.8351787,38.8700883 C71.2191787,39.2060883 71.5551787,39.5900883 71.7471787,39.8780883 C72.1311787,40.5020883 72.2271787,41.0300883 72.2271787,41.3180883 C72.2751787,42.2780883 71.2671787,43.3820883 70.2111787,43.4300883 C68.9631787,43.4780883 67.5231787,42.8060883 66.2751787,41.8460883 C65.0751787,43.2380883 63.8271787,44.4860883 62.7231787,45.4940883 C60.9471787,47.0300883 58.8831787,48.7580883 56.4831787,48.7580883 C54.6591787,48.7580883 53.7951787,48.2300883 53.1711787,46.3100883 C52.8351787,45.3020883 52.3551787,44.3900883 51.7311787,43.7180883 C51.0111787,42.8540883 50.2911787,41.6060883 50.2911787,40.4060883 C50.2911787,38.8220883 51.2511787,36.5660883 52.6911787,34.5500883 C53.9871787,32.7260883 55.5711787,30.9020883 57.5391787,29.3180883 C56.8191787,27.3500883 56.1951787,25.4300883 55.7631787,23.5580883 C55.3311787,21.4940883 55.0431787,19.4780883 54.8991787,17.9900883 C54.8511787,17.7980883 54.9951787,17.6060883 55.1871787,17.6060883 C55.2831787,17.6060883 55.3791787,17.6540883 55.4271787,17.7980883 C55.9551787,18.7100883 56.9631787,20.2460883 57.8271787,21.6860883 C58.5951787,23.2220883 59.6031787,25.0940883 60.7551787,27.0620883 Z M63.2511787,39.1100883 C62.2911787,38.1020883 61.3791787,36.9980883 60.6111787,35.7500883 C60.0351787,34.7900883 59.5071787,33.7340883 59.0271787,32.7260883 C57.8271787,33.9740883 56.8191787,35.2700883 56.0511787,36.5660883 C55.0431787,38.2460883 54.4671787,39.8300883 54.4671787,40.9820883 C54.4671787,41.8460883 54.6591787,42.5180883 55.0911787,42.9020883 C55.4751787,43.2860883 56.0031787,43.5260883 56.5791787,43.5260883 C57.8271787,43.5260883 59.2191787,42.5660883 60.2751787,41.7980883 C61.1871787,41.0780883 62.1951787,40.2140883 63.2511787,39.1100883 Z M66.3711787,34.9820883 C68.2431787,32.0060883 69.7311787,28.7900883 70.9311787,25.4780883 C67.7631787,26.1500883 64.8831787,27.7340883 62.3871787,29.6540883 C63.1071787,30.7580883 63.8271787,31.8140883 64.6431787,32.7740883 C65.2191787,33.5420883 65.7471787,34.3100883 66.3711787,34.9820883 Z M116.899179,23.7500883 L116.899179,26.8220883 C116.899179,27.8780883 116.899179,28.8860883 116.947179,29.8460883 C119.155179,29.1740883 121.075179,28.4540883 122.803179,27.5420883 C123.715179,27.1100883 124.579179,26.8220883 125.155179,26.8220883 C125.779179,26.8220883 126.739179,27.0620883 127.219179,27.3020883 C128.083179,27.7340883 128.899179,28.3100883 128.899179,29.5100883 C128.899179,30.9020883 127.699179,31.3820883 125.779179,32.1020883 C123.523179,32.9180883 120.643179,33.7340883 117.331179,34.5020883 C117.715179,37.9100883 118.291179,40.5980883 118.819179,42.5660883 C118.867179,42.7100883 118.915179,42.8540883 118.915179,43.0460883 C122.947179,43.9580883 126.403179,45.3020883 128.755179,46.6460883 C129.283179,46.9820883 129.571179,47.1740883 129.955179,47.5100883 C131.539179,48.9500883 132.259179,50.0540883 132.259179,51.5900883 C132.259179,53.0300883 131.443179,54.0860883 129.955179,54.0860883 C128.995179,54.0860883 128.323179,53.9900883 126.211179,52.1180883 C124.147179,50.2940883 121.939179,48.8060883 119.299179,47.6540883 C118.963179,50.0540883 117.667179,51.3980883 115.891179,52.3100883 C114.259179,53.1260883 111.667179,53.8940883 108.643179,53.8940883 C103.555179,53.8940883 100.339179,51.5900883 100.339179,48.5180883 C100.339179,46.2620883 101.203179,44.8220883 103.075179,43.7180883 C104.995179,42.5660883 107.395179,42.1340883 110.227179,42.1340883 C111.523179,42.1340883 112.915179,42.1820883 114.163179,42.2780883 C114.067179,41.1260883 113.971179,40.0220883 113.923179,38.8700883 C113.827179,37.6700883 113.731179,36.5180883 113.683179,35.3180883 C111.667179,35.7020883 109.363179,35.9900883 107.203179,35.9900883 C104.995179,35.9900883 103.603179,35.3660883 102.451179,34.2620883 C101.347179,33.1580883 100.579179,32.0060883 100.147179,30.7100883 C100.099179,30.5660883 100.003179,30.3260883 100.003179,30.2300883 C100.003179,30.0380883 100.147179,29.8940883 100.291179,29.8940883 C100.387179,29.8940883 100.483179,29.9420883 100.579179,30.0380883 C101.299179,30.6620883 101.875179,31.0460883 102.787179,31.5260883 C103.699179,31.9580883 104.563179,32.0540883 105.811179,32.0540883 C106.675179,32.0540883 108.307179,31.8620883 110.179179,31.5260883 C111.235179,31.3340883 112.339179,31.0940883 113.395179,30.8060883 C113.347179,29.7980883 113.347179,28.7420883 113.299179,27.7340883 C113.251179,26.7260883 113.251179,25.6700883 113.251179,24.5660883 C111.715179,24.9020883 109.843179,25.1900883 108.643179,25.1900883 C106.915179,25.1900883 105.811179,24.8540883 104.659179,23.7500883 C103.939179,23.0300883 103.219179,22.0700883 102.787179,20.6300883 C102.691179,20.3420883 102.787179,20.1500883 102.979179,20.1500883 C103.075179,20.1500883 103.171179,20.1980883 103.267179,20.2940883 C103.891179,20.8220883 104.419179,21.0620883 105.091179,21.3020883 C105.667179,21.4940883 106.339179,21.5900883 107.011179,21.5900883 C107.731179,21.5900883 109.315179,21.3500883 110.419179,21.1100883 C111.331179,20.9180883 112.243179,20.6300883 113.155179,20.3420883 C113.107179,18.8060883 113.059179,17.4140883 113.059179,16.5500883 C113.011179,14.5340883 113.155179,14.3420883 112.387179,13.9580883 C111.859179,13.7180883 111.379179,13.6220883 110.371179,13.5740883 C110.035179,13.5740883 109.891179,13.4300883 109.891179,13.2380883 C109.891179,13.0460883 109.987179,12.8540883 110.179179,12.6620883 C110.995179,11.8940883 112.003179,11.4140883 112.963179,11.4140883 C114.211179,11.4140883 115.411179,11.8460883 116.323179,12.3260883 C117.331179,12.8540883 118.291179,13.6220883 118.291179,14.7740883 C118.291179,15.3500883 118.003179,15.8300883 117.667179,16.3100883 C117.187179,17.1260883 117.139179,18.1820883 117.091179,18.9500883 C117.859179,18.6140883 118.531179,18.2780883 119.107179,17.8940883 C119.779179,17.4620883 120.211179,17.3180883 120.835179,17.3180883 C121.507179,17.3180883 122.371179,17.6540883 122.899179,17.9420883 C123.619179,18.3260883 124.243179,18.9500883 124.243179,19.6700883 C124.243179,21.0140883 123.091179,21.4460883 121.171179,22.2620883 C120.019179,22.7420883 118.579179,23.2700883 116.899179,23.7500883 Z M114.355179,46.0220883 C112.291179,45.5420883 109.939179,45.2060883 107.443179,45.2060883 C104.419179,45.2060883 101.875179,46.4060883 101.875179,48.1340883 C101.875179,49.3340883 103.267179,50.2460883 106.819179,50.2460883 C108.931179,50.2460883 111.235179,49.4780883 112.435179,48.7100883 C113.683179,47.9420883 114.259179,47.1740883 114.355179,46.0220883 Z M147.579179,16.2620883 C147.579179,17.6060883 147.483179,18.8060883 147.243179,21.1100883 C146.763179,25.4780883 146.235179,29.5100883 145.899179,32.9180883 C145.659179,35.6060883 145.515179,38.1500883 145.515179,40.8860883 C145.515179,44.7740883 146.427179,47.6540883 148.299179,49.6220883 C150.027179,51.4460883 152.523179,52.6940883 156.315179,52.6940883 C161.499179,52.6940883 165.435179,50.7740883 168.891179,47.5100883 C172.107179,44.4380883 174.267179,39.3020883 175.467179,32.5820883 C175.515179,32.3420883 175.515179,32.2460883 175.515179,32.1500883 C175.515179,31.9100883 175.371179,31.7660883 175.227179,31.7660883 C175.083179,31.7660883 174.987179,31.8620883 174.891179,32.0060883 C172.923179,37.0940883 170.187179,40.8380883 166.875179,43.0460883 C163.275179,45.4460883 159.675179,46.8860883 154.779179,46.8860883 C152.331179,46.8860883 151.323179,46.5020883 150.459179,45.6380883 C149.739179,44.9180883 149.547179,43.8620883 149.547179,42.1820883 C149.547179,40.4060883 149.643179,38.6780883 149.835179,36.9020883 C150.267179,32.7260883 151.515179,27.7820883 152.475179,24.2780883 C152.715179,23.4140883 152.955179,22.4060883 153.483179,21.5420883 C154.059179,20.6300883 154.347179,19.7180883 154.347179,18.9500883 C154.347179,17.3180883 153.339179,15.7820883 151.899179,14.4860883 C150.411179,13.1420883 148.779179,12.1820883 147.051179,12.1820883 C146.379179,12.1820883 145.611179,12.2780883 145.035179,12.5660883 C144.891179,12.6140883 144.795179,12.7580883 144.795179,12.8540883 C144.795179,12.9980883 144.843179,13.0940883 145.035179,13.1900883 C145.803179,13.5740883 146.379179,13.9580883 146.763179,14.3420883 C147.339179,14.9180883 147.579179,15.4460883 147.579179,16.2620883 Z M201.651179,21.0140883 C200.163179,22.5500883 198.339179,24.4220883 196.803179,26.3420883 C193.443179,30.4220883 191.859179,34.6940883 191.859179,39.3980883 C191.859179,43.1900883 193.299179,45.9740883 195.411179,47.9420883 C197.955179,50.2940883 202.179179,51.6380883 207.651179,51.6380883 C209.523179,51.6380883 211.731179,51.6380883 213.027179,51.3980883 C214.947179,51.0140883 215.763179,50.2460883 215.763179,48.7100883 C215.763179,47.7500883 215.283179,46.6940883 214.371179,46.1180883 C213.507179,45.5420883 212.163179,44.8700883 210.867179,44.8700883 C210.003179,44.8700883 209.523179,44.9180883 208.419179,45.1580883 C207.315179,45.3500883 206.067179,45.4460883 204.627179,45.4460883 C201.795179,45.4460883 199.059179,44.8220883 197.331179,43.4780883 C195.747179,42.1820883 194.691179,40.2140883 194.691179,36.7580883 C194.691179,33.9260883 195.891179,30.6620883 198.531179,27.4940883 C200.307179,25.3340883 202.803179,23.3180883 204.915179,22.0700883 C206.691179,21.0140883 208.467179,20.2460883 210.819179,20.2460883 C211.491179,20.2460883 212.307179,20.2460883 213.267179,20.2940883 C214.323179,20.3420883 215.043179,20.4860883 215.955179,20.4860883 C217.155179,20.4860883 218.307179,19.9100883 218.307179,18.3260883 C218.307179,16.7900883 217.635179,15.8780883 215.763179,15.0140883 C214.515179,14.4380883 212.259179,13.9100883 210.963179,13.9100883 C209.859179,13.9100883 209.427179,14.1020883 208.659179,14.5340883 C207.939179,14.9660883 207.219179,15.2540883 205.635179,15.8300883 C204.579179,16.2140883 203.283179,16.6460883 202.179179,16.9820883 C200.643179,17.5100883 198.963179,18.0380883 197.475179,18.5180883 C193.683179,19.7660883 190.515179,20.7740883 187.683179,21.6380883 C185.379179,22.3580883 183.507179,22.9340883 182.451179,22.9340883 C181.923179,22.9340883 181.395179,22.7900883 180.819179,22.4060883 C180.435179,22.1660883 179.907179,21.8300883 179.235179,21.2540883 C179.043179,21.1100883 178.899179,21.0140883 178.755179,21.0140883 C178.515179,21.0140883 178.419179,21.1580883 178.419179,21.8780883 C178.419179,22.3580883 178.467179,22.6460883 178.515179,22.8860883 C178.899179,24.6140883 180.099179,25.6700883 181.011179,26.5820883 C182.307179,27.8300883 183.411179,28.4540883 184.659179,28.4540883 C186.003179,28.4540883 186.771179,27.9740883 187.491179,27.4460883 C188.211179,26.9180883 189.219179,26.4380883 189.891179,26.1020883 C192.627179,24.6140883 195.459179,23.6060883 198.291179,22.3100883 C199.395179,21.8300883 200.643179,21.2540883 201.555179,20.8700883 L201.651179,21.0140883 Z M244.059179,14.3900883 C241.947179,14.3900883 240.315179,16.0220883 240.315179,18.1820883 C240.315179,19.9100883 240.795179,21.9260883 241.419179,24.3740883 C242.379179,28.3100883 243.627179,33.4460883 243.627179,40.5980883 C243.627179,40.8860883 243.723179,41.1260883 244.059179,41.1260883 C244.395179,41.1260883 244.491179,40.8860883 244.491179,40.5980883 C244.491179,33.4460883 245.739179,28.3100883 246.699179,24.3740883 C247.323179,21.9260883 247.803179,19.9100883 247.803179,18.1820883 C247.803179,16.0220883 246.171179,14.3900883 244.059179,14.3900883 Z M244.059179,45.0140883 C242.283179,45.0140883 240.843179,46.4540883 240.843179,48.2300883 C240.843179,50.0540883 242.283179,51.4460883 244.059179,51.4460883 C245.835179,51.4460883 247.275179,50.0540883 247.275179,48.2300883 C247.275179,46.4540883 245.835179,45.0140883 244.059179,45.0140883 Z" id="初めまして！" fill="#000000" opacity="0.11" transform="translate(124.631179, 33.215088) rotate(-5.000000) translate(-124.631179, -33.215088) "></path>
                    <path d="M277.052336,90.3924039 L258.558484,71.8985514 L29.2266476,71.8985514 L29.2266476,68.8985514 L260.226648,68.8985514 L260.226648,69.3240747 L277.052336,86.1497632 L277.052336,50.8719143 L280.052336,50.8719143 L280.052336,90.8719143 L277.866817,90.8719143 L277.699332,91.0393998 L277.531847,90.8719143 L277.052336,90.8719143 L277.052336,90.3924039 Z" fill="#D8D8D8" transform="translate(154.639492, 70.955657) rotate(-5.000000) translate(-154.639492, -70.955657) "></path>
                </g>
            </g>
        </g>
    </g>
</svg>