<?xml version="1.0" encoding="UTF-8" standalone="no"?>
<svg width="165px" height="25px" viewBox="0 0 165 25" version="1.1" xmlns="http://www.w3.org/2000/svg" xmlns:xlink="http://www.w3.org/1999/xlink" xmlns:sketch="http://www.bohemiancoding.com/sketch/ns">
    <!-- Generator: Sketch 3.3.2 (12043) - http://www.bohemiancoding.com/sketch -->
    <title>DAILY</title>
    <desc>Created with Sketch.</desc>
    <defs></defs>
    <g id="Page-1" stroke="none" stroke-width="1" fill="none" fill-rule="evenodd" sketch:type="MSPage">
        <g id="Desktop-Landscape-Copy-2" sketch:type="MSArtboardGroup" transform="translate(-128.000000, -34.000000)" fill="#FFFFFF">
            <path d="M128.837043,58 L128.837043,34.4761848 L134.916421,34.4761848 C136.717727,34.4761848 138.150307,34.5521762 139.214203,34.7041614 C140.2781,34.8561467 141.254731,35.174185 142.144126,35.658286 C143.83285,36.5589391 145.102189,37.9661885 145.952181,39.8800763 C146.802172,41.7939641 147.227161,43.8935801 147.227161,46.1789873 C147.227161,50.2319262 146.090104,53.3672778 143.815955,55.585136 C142.690138,56.688436 141.485533,57.3667302 140.202102,57.6200389 C138.918672,57.8733476 136.914749,58 134.190273,58 L128.837043,58 Z M131.015487,56.0579765 L134.781324,56.0579765 C136.121045,56.0579765 137.108934,56.0410895 137.74502,56.007315 C138.381107,55.9735405 139.09036,55.8300011 139.872803,55.5766924 C140.655245,55.3233837 141.333539,54.9434264 141.907706,54.436809 C142.785842,53.6712539 143.506354,52.5623414 144.069262,51.1100383 C144.63217,49.6577352 144.91362,48.047842 144.91362,46.2803103 C144.91362,44.5690694 144.654686,42.9873212 144.136811,41.5350181 C143.618935,40.082715 142.875908,38.9400285 141.907706,38.1069244 C141.052085,37.3413693 140.089527,36.8685335 139.020001,36.6884029 C137.950476,36.5082722 136.273034,36.4182083 133.987627,36.4182083 L131.015487,36.4182083 L131.015487,56.0579765 Z M148.459924,58 L157.427007,34.4761848 L159.571676,34.4761848 L168.454323,58 L166.107007,58 L163.47261,50.9073924 L153.340314,50.9073924 L150.773465,58 L148.459924,58 Z M154.066462,48.8978202 L162.712688,48.8978202 L159.419692,40.2515938 C159.00314,39.2383591 158.671029,38.2814295 158.423349,37.3807765 L158.389575,37.3807765 C158.018055,38.5291091 157.669057,39.4972967 157.342571,40.2853681 L154.066462,48.8978202 Z M171.392689,58 L171.392689,34.4761848 L173.571132,34.4761848 L173.571132,58 L171.392689,58 Z M179.228331,58 L179.228331,34.4761848 L181.406775,34.4761848 L181.406775,56.0579765 L194.376115,56.0579765 L194.376115,58 L179.228331,58 Z M191.285764,34.4761848 L193.903274,34.4761848 L200.995882,46.145213 L208.32491,34.4761848 L210.891758,34.4761848 L201.95845,48.3574311 L201.95845,58 L199.780006,58 L199.780006,48.3574311 L191.285764,34.4761848 Z M213.030117,58 L213.030117,53.7782098 L224.175643,39.1539284 L213.452296,39.1539284 L213.452296,34.4761848 L230.981169,34.4761848 L230.981169,38.3264575 L219.751207,53.2884821 L231.014943,53.2884821 L231.014943,58 L213.030117,58 Z M234.493698,58 L234.493698,34.4761848 L251.026229,34.4761848 L251.026229,39.0863797 L239.694944,39.0863797 L239.694944,43.7134618 L249.928564,43.7134618 L249.928564,48.2898824 L239.694944,48.2898824 L239.694944,53.3729179 L251.819926,53.3729179 L251.819926,58 L234.493698,58 Z M253.559303,53.5080152 L257.190043,50.3838904 C259.036382,52.8269119 261.411818,54.0540333 264.316425,54.0652915 C265.678662,54.0652915 266.739728,53.8148011 267.499655,53.3138128 C268.259581,52.8128246 268.639538,52.1289014 268.639538,51.2620228 C268.639538,50.4964676 268.355274,49.9476404 267.786736,49.6155246 C267.218199,49.2834088 266.326003,49.0104024 265.110121,48.7964973 L262.070432,48.2054466 C259.649927,47.7438619 257.786729,46.9952053 256.480782,45.9594542 C255.174835,44.9237032 254.521871,43.3475839 254.521871,41.2310492 C254.521871,39.1370307 255.380293,37.4201865 257.097163,36.0804651 C258.814033,34.7407436 260.978383,34.0708929 263.590277,34.0708929 C265.59423,34.0708929 267.409582,34.4058183 269.036386,35.075679 C270.663191,35.7455397 272.005707,36.6433648 273.063974,37.7691812 L269.737203,40.9439674 C267.958413,39.2327266 265.931974,38.382748 263.657825,38.3940061 C262.554525,38.3940061 261.662329,38.607908 260.98121,39.0357182 C260.300091,39.4635285 259.959537,40.0461297 259.959537,40.7835394 C259.959537,41.5209491 260.212842,42.0782198 260.719459,42.4553683 C261.226077,42.8325168 262.042281,43.1280392 263.168098,43.3419443 L266.967709,44.1018665 C269.298149,44.5634512 271.062839,45.3121079 272.261834,46.3478589 C273.460828,47.38361 274.060317,48.8809233 274.060317,50.8398438 C274.060317,53.2153163 273.131532,55.0728854 271.273935,56.4126069 C269.416338,57.7523283 267.04653,58.422179 264.16444,58.422179 C261.721419,58.422179 259.568327,57.9155693 257.705101,56.9023345 C255.841875,55.8890998 254.459956,54.7576713 253.559303,53.5080152 L253.559303,53.5080152 Z M274.27985,39.1539284 L274.27985,34.4761848 L292.399773,34.4761848 L292.399773,39.1539284 L285.965765,39.1539284 L285.965765,58 L280.747632,58 L280.747632,39.1539284 L274.27985,39.1539284 Z" id="DAILY" sketch:type="MSShapeGroup"></path>
        </g>
    </g>
</svg>