<?xml version="1.0" encoding="UTF-8" standalone="no"?>
<svg width="167px" height="27px" viewBox="0 0 167 27" version="1.1" xmlns="http://www.w3.org/2000/svg" xmlns:xlink="http://www.w3.org/1999/xlink" xmlns:sketch="http://www.bohemiancoding.com/sketch/ns">
    <!-- Generator: Sketch 3.3.2 (12043) - http://www.bohemiancoding.com/sketch -->
    <title> ZEST + DAILY</title>
    <desc>Created with Sketch.</desc>
    <defs></defs>
    <g id="Blog" stroke="none" stroke-width="1" fill="none" fill-rule="evenodd" sketch:type="MSPage">
        <g id="Artboard-1" sketch:type="MSArtboardGroup" transform="translate(-229.000000, -56.000000)">
            <g id="Group" sketch:type="MSLayerGroup" transform="translate(0.000000, 42.000000)">
                <g id="-ZEST-+-DAILY" transform="translate(229.000000, 14.000000)" sketch:type="MSShapeGroup">
                    <path d="M110.779877,1.0918874 L110.779877,2.80384023 C110.779877,3.33414477 110.630011,3.81832861 110.330274,4.25640627 L97.4992737,22.3788968 L110.468613,22.3788968 L110.468613,26.0967742 L91.4642076,26.0967742 L91.4642076,24.2637742 C91.4642076,24.033207 91.5045563,23.8112894 91.5852548,23.5980148 C91.6659533,23.3847401 91.769707,23.1858789 91.896519,23.0014251 L104.762104,4.79247231 L92.2769529,4.79247231 L92.2769529,1.0918874 L110.779877,1.0918874 Z M128.726377,1.0918874 L128.726377,4.79247231 L117.641915,4.79247231 L117.641915,11.7267459 L126.374604,11.7267459 L126.374604,15.3062836 L117.641915,15.3062836 L117.641915,22.3788968 L128.726377,22.3788968 L128.726377,26.0967742 L112.95566,26.0967742 L112.95566,1.0918874 L128.726377,1.0918874 Z M144.85717,5.6398025 C144.730358,5.89342641 144.583373,6.0721133 144.416212,6.17586853 C144.249051,6.27962377 144.05019,6.33150061 143.819623,6.33150061 C143.589055,6.33150061 143.329671,6.24215716 143.041462,6.06346759 C142.753253,5.88477802 142.413172,5.6859168 142.021207,5.46687797 C141.629243,5.24783914 141.170998,5.04897792 140.646457,4.87028834 C140.121917,4.69159877 139.502277,4.60225533 138.787519,4.60225533 C138.141931,4.60225533 137.579932,4.68007059 137.101505,4.83570344 C136.623078,4.99133629 136.219591,5.20748979 135.891033,5.48417042 C135.562475,5.76085105 135.317501,6.09228641 135.156104,6.47848646 C134.994707,6.8646865 134.914009,7.28834736 134.914009,7.74948174 C134.914009,8.33742808 135.078286,8.82737601 135.406844,9.21934023 C135.735403,9.61130446 136.170592,9.94562187 136.712424,10.2223025 C137.254257,10.4989831 137.871015,10.7468391 138.562717,10.965878 C139.254419,11.1849168 139.96052,11.4183626 140.681042,11.6662223 C141.401565,11.914082 142.107666,12.2022867 142.799368,12.5308449 C143.491069,12.8594032 144.107827,13.2744179 144.64966,13.7759016 C145.191493,14.2773852 145.626682,14.8912611 145.955241,15.6175478 C146.283799,16.3438344 146.448075,17.2257407 146.448075,18.2632931 C146.448075,19.3930723 146.254978,20.4507834 145.868778,21.4364582 C145.482578,22.4221329 144.917697,23.2809828 144.174118,24.0130336 C143.430539,24.7450845 142.522694,25.3214938 141.450557,25.7422789 C140.378419,26.163064 139.150667,26.3734534 137.767264,26.3734534 C136.971807,26.3734534 136.187891,26.2956382 135.415491,26.1400053 C134.64309,25.9843725 133.902404,25.7624549 133.19341,25.4742459 C132.484416,25.1860369 131.821545,24.8401913 131.204778,24.4366987 C130.588011,24.0332061 130.03754,23.5836069 129.553349,23.0878874 L130.90216,20.857161 C131.028972,20.695764 131.181721,20.5603078 131.36041,20.4507883 C131.5391,20.3412689 131.737961,20.28651 131.957,20.28651 C132.245209,20.28651 132.55647,20.404674 132.890792,20.6410053 C133.225115,20.8773367 133.619955,21.1396029 134.075325,21.4278119 C134.530696,21.7160209 135.066756,21.9782872 135.683524,22.2146185 C136.300291,22.4509499 137.040977,22.5691138 137.905604,22.5691138 C139.231365,22.5691138 140.257374,22.2549707 140.98366,21.6266751 C141.709947,20.9983795 142.073085,20.0962989 142.073085,18.9204063 C142.073085,18.2632898 141.908808,17.7272291 141.58025,17.3122082 C141.251692,16.8971872 140.816503,16.5484596 140.27467,16.2660148 C139.732837,15.98357 139.116079,15.7443601 138.424377,15.548378 C137.732676,15.3523959 137.029456,15.1391244 136.314698,14.9085572 C135.59994,14.67799 134.89672,14.4013135 134.205019,14.0785195 C133.513317,13.7557254 132.896559,13.3349466 132.354726,12.8161704 C131.812893,12.2973942 131.377704,11.6489337 131.049146,10.8707695 C130.720588,10.0926052 130.556311,9.13288367 130.556311,7.99157608 C130.556311,7.08083568 130.73788,6.19316531 131.101024,5.32853834 C131.464167,4.46391138 131.994463,3.69728697 132.691929,3.02864212 C133.389395,2.35999727 134.245363,1.82393659 135.259858,1.420444 C136.274354,1.01695142 137.432937,0.815208156 138.735641,0.815208156 C140.211271,0.815208156 141.571598,1.04577189 142.81666,1.50690627 C144.061723,1.96804065 145.122316,2.6136191 145.998472,3.44366099 L144.85717,5.6398025 Z M166.33133,1.0918874 L166.33133,4.91351948 L158.809113,4.91351948 L158.809113,26.0967742 L154.157443,26.0967742 L154.157443,4.91351948 L146.600641,4.91351948 L146.600641,1.0918874 L166.33133,1.0918874 Z" id="-ZEST" fill="#7BE606"></path>
                    <path d="M21.6510497,13.601475 C21.6510497,15.5310789 21.3627901,17.2665198 20.7862621,18.8078497 C20.2097341,20.3491796 19.3979007,21.6610552 18.3507377,22.7435159 C17.3035746,23.8259766 16.0505274,24.6554586 14.5915587,25.2319865 C13.1325899,25.8085145 11.514806,26.0967742 9.73815856,26.0967742 L0.631415094,26.0967742 L0.631415094,1.12382456 L9.73815856,1.12382456 C11.514806,1.12382456 13.1325899,1.41208423 14.5915587,1.98861222 C16.0505274,2.5651402 17.3035746,3.39462211 18.3507377,4.47708282 C19.3979007,5.55954353 20.2097341,6.87141916 20.7862621,8.41274908 C21.3627901,9.95407901 21.6510497,11.683637 21.6510497,13.601475 L21.6510497,13.601475 Z M19.7802846,13.601475 C19.7802846,11.8601252 19.5390877,10.3070527 19.0566868,8.94221091 C18.5742858,7.57736915 17.8948166,6.42433047 17.0182587,5.48306029 C16.1417009,4.54179011 15.0857292,3.82408236 13.8503121,3.32991552 C12.614895,2.83574867 11.2441909,2.58866896 9.73815856,2.58866896 L2.44923404,2.58866896 L2.44923404,24.6319298 L9.73815856,24.6319298 C11.2441909,24.6319298 12.614895,24.3848501 13.8503121,23.8906832 C15.0857292,23.3965164 16.1417009,22.6788086 17.0182587,21.7375385 C17.8948166,20.7962683 18.5742858,19.6432296 19.0566868,18.2783878 C19.5390877,16.9135461 19.7802846,15.3545907 19.7802846,13.601475 L19.7802846,13.601475 Z M45.0094922,26.0967742 L43.6152427,26.0967742 C43.4505204,26.0967742 43.3152148,26.0526528 43.2093219,25.9644087 C43.103429,25.8761647 43.0210691,25.7614491 42.9622398,25.6202585 L40.0149022,18.3666315 L27.7490365,18.3666315 L24.8193477,25.6202585 C24.7722842,25.7496832 24.6899243,25.8614574 24.5722655,25.9555844 C24.4546068,26.0497114 24.3134184,26.0967742 24.1486961,26.0967742 L22.7720953,26.0967742 L32.9907086,1.12382456 L34.7908789,1.12382456 L45.0094922,26.0967742 Z M28.2961471,17.0253282 L39.4854404,17.0253282 L34.3849581,4.40648791 C34.302597,4.20646799 34.2202371,3.97997825 34.1378759,3.72701189 C34.0555148,3.47404553 33.9731549,3.20637584 33.8907937,2.92399478 C33.8084326,3.20637584 33.7260727,3.47404553 33.6437116,3.72701189 C33.5613504,3.97997825 33.4789905,4.21235084 33.3966294,4.42413663 L28.2961471,17.0253282 Z M50.7192069,26.0967742 L48.901388,26.0967742 L48.901388,1.12382456 L50.7192069,1.12382456 L50.7192069,26.0967742 Z M59.8880723,24.5613349 L71.7303686,24.5613349 L71.7303686,26.0967742 L58.0879021,26.0967742 L58.0879021,1.12382456 L59.8880723,1.12382456 L59.8880723,24.5613349 Z M79.7697154,15.7899172 L79.7697154,26.0967742 L77.9518965,26.0967742 L77.9518965,15.7899172 L68.7216119,1.12382456 L70.2923487,1.12382456 C70.457071,1.12382456 70.5894351,1.16206309 70.6894451,1.23854129 C70.789455,1.31501949 70.886522,1.42385223 70.9806491,1.56504275 L78.1283838,13.0367157 C78.293106,13.3073309 78.4342945,13.5691177 78.5519532,13.8220841 C78.669612,14.0750505 78.7755033,14.3309545 78.8696303,14.5898038 C78.9637573,14.3309545 79.0696487,14.0750505 79.1873074,13.8220841 C79.3049662,13.5691177 79.4461546,13.3073309 79.6108769,13.0367157 L86.7409629,1.56504275 C86.8115581,1.4356181 86.8998009,1.3297268 87.0056938,1.24736566 C87.1115867,1.16500452 87.2468922,1.12382456 87.4116145,1.12382456 L89,1.12382456 L79.7697154,15.7899172 Z" id="DAILY" fill="#595959"></path>
                </g>
            </g>
        </g>
    </g>
</svg>