<?xml version="1.0" encoding="UTF-8"?>
<svg width="155px" height="14px" viewBox="0 0 155 14" version="1.1" xmlns="http://www.w3.org/2000/svg" xmlns:xlink="http://www.w3.org/1999/xlink">
    <g stroke="none" stroke-width="1" fill="none" fill-rule="evenodd">
        <g transform="translate(-50.000000, -17.000000)" fill="#000000">
            <g>
                <g transform="translate(50.000000, 17.000000)">
                    <path d="M15.2637631,0.0200220121 L28.9527045,0.0200220121 L28.9527045,1.42504493 L16.6395361,1.42504493 L16.6395361,14 L15.2637631,14 L15.2637631,0.0200220121 Z M0,0 L13.6685199,0 C13.6685199,0 14.1386204,7.0060189 10.3106395,10.839395 C6.48265856,14.6727712 9.77545521e-16,13.9448524 9.77545521e-16,13.9448524 L9.77545521e-16,12.5398295 C9.77545521e-16,12.5398295 5.47783372,12.9872689 8.81650163,10.0588115 C12.1551695,7.13035408 12.2927468,1.40502291 12.2927468,1.40502291 L9.77545521e-16,1.40502291 L0,0 Z"></path>
                    <path d="M43.9671683,9.60738714 C43.9671683,10.1646175 43.9197451,10.7040558 43.8248974,11.2257182 C43.7300497,11.7473806 43.5373932,12.2156842 43.246922,12.630643 C42.9564509,13.0456017 42.5355705,13.3775637 41.9842681,13.626539 C41.4329658,13.8755142 40.700871,14 39.7879617,14 C39.1121717,14 38.5371661,13.8962619 38.0629275,13.6887825 C37.5886889,13.4813031 37.197448,13.1967642 36.8891929,12.8351573 C36.5809378,12.4735504 36.3556779,12.0437781 36.2134063,11.5458276 C36.0711347,11.0478771 36,10.5084388 36,9.92749658 L36,9.25170999 L38.2229822,9.25170999 L38.2229822,9.90971272 C38.2229822,10.6329266 38.344504,11.1931125 38.5875513,11.5902873 C38.8305986,11.9874621 39.2900103,12.1860465 39.9658003,12.1860465 C40.3214792,12.1860465 40.6149099,12.1326955 40.8461012,12.0259918 C41.0772925,11.9192881 41.2610572,11.7621989 41.3974008,11.5547196 C41.5337444,11.3472402 41.6256268,11.0893768 41.6730506,10.7811218 C41.7204745,10.4728667 41.744186,10.123121 41.744186,9.73187415 L41.744186,1 L43.9671683,1 L43.9671683,9.60738714 Z M50.6005472,13.9466484 C49.8654774,13.9466484 49.2104452,13.8251266 48.6354309,13.5820793 C48.0604166,13.3390321 47.5743294,13.0041061 47.1771546,12.5772914 C46.7799798,12.1504767 46.4776572,11.6406778 46.2701778,11.0478796 C46.0626985,10.4550814 45.9589603,9.80301313 45.9589603,9.09165527 C45.9589603,8.39215337 46.0626985,7.746013 46.2701778,7.15321477 C46.4776572,6.56041655 46.7799798,6.05061773 47.1771546,5.62380301 C47.5743294,5.19698829 48.0604166,4.86206232 48.6354309,4.61901505 C49.2104452,4.37596778 49.8654774,4.25444596 50.6005472,4.25444596 C51.335617,4.25444596 51.9906492,4.37596778 52.5656635,4.61901505 C53.1406777,4.86206232 53.626765,5.19698829 54.0239398,5.62380301 C54.4211146,6.05061773 54.7234372,6.56041655 54.9309166,7.15321477 C55.1383959,7.746013 55.2421341,8.39215337 55.2421341,9.09165527 C55.2421341,9.80301313 55.1383959,10.4550814 54.9309166,11.0478796 C54.7234372,11.6406778 54.4211146,12.1504767 54.0239398,12.5772914 C53.626765,13.0041061 53.1406777,13.3390321 52.5656635,13.5820793 C51.9906492,13.8251266 51.335617,13.9466484 50.6005472,13.9466484 L50.6005472,13.9466484 Z M50.6005472,12.3461012 C51.0510738,12.3461012 51.4423148,12.2512549 51.7742818,12.0615595 C52.1062488,11.8718641 52.3789319,11.6228926 52.5923393,11.3146375 C52.8057466,11.0063824 52.9628358,10.6596006 53.0636115,10.2742818 C53.1643872,9.88896296 53.2147743,9.49475806 53.2147743,9.09165527 C53.2147743,8.70040844 53.1643872,8.30916748 53.0636115,7.91792066 C52.9628358,7.52667383 52.8057466,7.17989207 52.5923393,6.87756498 C52.3789319,6.57523789 52.1062488,6.32923031 51.7742818,6.13953488 C51.4423148,5.94983945 51.0510738,5.85499316 50.6005472,5.85499316 C50.1500205,5.85499316 49.7587796,5.94983945 49.4268126,6.13953488 C49.0948456,6.32923031 48.8221625,6.57523789 48.6087551,6.87756498 C48.3953478,7.17989207 48.2382586,7.52667383 48.1374829,7.91792066 C48.0367072,8.30916748 47.9863201,8.70040844 47.9863201,9.09165527 C47.9863201,9.49475806 48.0367072,9.88896296 48.1374829,10.2742818 C48.2382586,10.6596006 48.3953478,11.0063824 48.6087551,11.3146375 C48.8221625,11.6228926 49.0948456,11.8718641 49.4268126,12.0615595 C49.7587796,12.2512549 50.1500205,12.3461012 50.6005472,12.3461012 L50.6005472,12.3461012 Z M56.9316005,4.50341997 L58.8344733,4.50341997 L58.8344733,6.28180575 L58.870041,6.28180575 C58.9293209,6.03283049 59.0449148,5.78978687 59.2168263,5.55266758 C59.3887377,5.31554829 59.596214,5.09918018 59.8392613,4.90355677 C60.0823086,4.70793336 60.3520277,4.55084419 60.6484268,4.43228454 C60.9448259,4.3137249 61.2471485,4.25444596 61.5554036,4.25444596 C61.7925228,4.25444596 61.9555399,4.26037386 62.0444596,4.27222982 C62.1333794,4.28408579 62.2252617,4.29594157 62.3201094,4.30779754 L62.3201094,6.26402189 C62.1778379,6.24030996 62.0326045,6.21956233 61.8844049,6.20177839 C61.7362054,6.18399444 61.590972,6.1751026 61.4487004,6.1751026 C61.1048774,6.1751026 60.7818073,6.24327337 60.4794802,6.37961696 C60.1771531,6.51596055 59.9133618,6.71750893 59.6880985,6.98426813 C59.4628352,7.25102733 59.2849984,7.5800254 59.1545828,7.97127223 C59.0241672,8.36251906 58.9589603,8.81303895 58.9589603,9.32284542 L58.9589603,13.6976744 L56.9316005,13.6976744 L56.9316005,4.50341997 Z M71.8522572,13.6976744 L69.9316005,13.6976744 L69.9316005,12.4528044 L69.8960328,12.4528044 C69.6233456,12.9863228 69.2261768,13.3686719 68.7045144,13.5998632 C68.1828519,13.8310545 67.6315579,13.9466484 67.0506156,13.9466484 C66.3274018,13.9466484 65.6960811,13.8191987 65.1566347,13.5642955 C64.6171884,13.3093923 64.1696324,12.9626105 63.8139535,12.5239398 C63.4582746,12.0852691 63.1915194,11.5665785 63.0136799,10.9678523 C62.8358404,10.3691261 62.746922,9.72594963 62.746922,9.03830369 C62.746922,8.20838618 62.859552,7.49111109 63.0848153,6.88645691 C63.3100786,6.28180272 63.6094373,5.78385969 63.9829001,5.39261286 C64.356363,5.00136603 64.7831713,4.71386321 65.2633379,4.53009576 C65.7435045,4.34632831 66.2325556,4.25444596 66.7305062,4.25444596 C67.0150493,4.25444596 67.3055161,4.28112148 67.6019152,4.33447332 C67.8983143,4.38782516 68.1828532,4.47377962 68.4555404,4.59233926 C68.7282275,4.71089891 68.980163,4.86206018 69.2113543,5.04582763 C69.4425456,5.22959508 69.6352021,5.44596319 69.7893297,5.69493844 L69.8248974,5.69493844 L69.8248974,1 L71.8522572,1 L71.8522572,13.6976744 Z M64.7742818,9.19835841 C64.7742818,9.58960524 64.8246689,9.9749183 64.9254446,10.3543092 C65.0262203,10.7337 65.1803455,11.0715899 65.3878249,11.3679891 C65.5953043,11.6643882 65.8590955,11.9015039 66.1792066,12.0793434 C66.4993176,12.2571828 66.8787028,12.3461012 67.3173735,12.3461012 C67.7679001,12.3461012 68.1561771,12.2512549 68.4822161,12.0615595 C68.8082552,11.8718641 69.0750104,11.6228926 69.2824897,11.3146375 C69.4899691,11.0063824 69.6440943,10.6596006 69.74487,10.2742818 C69.8456457,9.88896296 69.8960328,9.49475806 69.8960328,9.09165527 C69.8960328,8.07204233 69.6678089,7.27770462 69.2113543,6.70861833 C68.7548997,6.13953204 68.1354348,5.85499316 67.3529412,5.85499316 C66.8787026,5.85499316 66.4785698,5.9528034 66.1525308,6.14842681 C65.8264918,6.34405023 65.5597366,6.59894964 65.3522572,6.91313269 C65.1447778,7.22731575 64.9965805,7.58298935 64.9076607,7.98016416 C64.818741,8.37733897 64.7742818,8.78339966 64.7742818,9.19835841 L64.7742818,9.19835841 Z M81.7578659,11.6525308 C81.7578659,11.901506 81.7904694,12.0793428 81.8556772,12.1860465 C81.920885,12.2927502 82.0483347,12.3461012 82.2380301,12.3461012 L82.4514364,12.3461012 C82.5344281,12.3461012 82.6292744,12.3342454 82.7359781,12.3105335 L82.7359781,13.7154583 C82.6648423,13.7391702 82.57296,13.7658457 82.4603283,13.7954856 C82.3476967,13.8251255 82.2321027,13.8518011 82.1135431,13.875513 C81.9949834,13.8992249 81.8764256,13.9170086 81.7578659,13.9288646 C81.6393063,13.9407205 81.5385321,13.9466484 81.4555404,13.9466484 C81.0405816,13.9466484 80.6967638,13.8636579 80.4240766,13.6976744 C80.1513894,13.5316909 79.9735526,13.2412241 79.8905609,12.8262654 C79.4874581,13.2175122 78.992479,13.5020511 78.4056088,13.6798906 C77.8187385,13.85773 77.2526247,13.9466484 76.7072503,13.9466484 C76.2922916,13.9466484 75.8951227,13.8903334 75.5157319,13.7777018 C75.136341,13.6650701 74.801415,13.4990891 74.5109439,13.2797538 C74.2204728,13.0604184 73.9892849,12.7818074 73.8173735,12.4439124 C73.645462,12.1060175 73.5595075,11.7118126 73.5595075,11.2612859 C73.5595075,10.6921996 73.6632457,10.2298239 73.870725,9.87414501 C74.0782044,9.51846607 74.3508875,9.23985509 74.6887825,9.03830369 C75.0266775,8.8367523 75.4060626,8.69151891 75.8269494,8.60259918 C76.2478361,8.51367945 76.6716805,8.44550867 77.0984952,8.39808482 C77.4660301,8.32694903 77.8157758,8.27656194 78.1477428,8.24692202 C78.4797098,8.21728211 78.7731405,8.16689502 79.0280438,8.09575923 C79.282947,8.02462345 79.4844954,7.91495742 79.6326949,7.76675787 C79.7808945,7.61855831 79.8549932,7.39626231 79.8549932,7.0998632 C79.8549932,6.83903198 79.7927503,6.62562782 79.6682627,6.45964432 C79.543775,6.29366082 79.3896498,6.16621111 79.2058824,6.07729138 C79.0221149,5.98837165 78.8176026,5.92909272 78.5923393,5.8994528 C78.3670759,5.86981289 78.1536718,5.85499316 77.9521204,5.85499316 C77.3830341,5.85499316 76.9147305,5.97355103 76.5471956,6.21067031 C76.1796607,6.4477896 75.9721845,6.81531899 75.9247606,7.31326949 L73.8974008,7.31326949 C73.9329687,6.72047127 74.0752382,6.22845613 74.3242134,5.8372093 C74.5731887,5.44596248 74.890331,5.13178413 75.2756498,4.89466484 C75.6609686,4.65754555 76.0966688,4.49156454 76.5827633,4.39671683 C77.0688579,4.30186911 77.5668009,4.25444596 78.0766074,4.25444596 C78.527134,4.25444596 78.971726,4.30186911 79.4103967,4.39671683 C79.8490674,4.49156454 80.2432723,4.64568977 80.5930233,4.85909713 C80.9427742,5.07250449 81.2243491,5.34815153 81.4377565,5.68604651 C81.6511639,6.0239415 81.7578659,6.43593008 81.7578659,6.92202462 L81.7578659,11.6525308 Z M79.7305062,9.09165527 C79.4222511,9.29320666 79.0428659,9.41472847 78.5923393,9.45622435 C78.1418126,9.49772023 77.6912927,9.55996311 77.2407661,9.64295486 C77.0273587,9.67852275 76.8198824,9.72890984 76.6183311,9.79411765 C76.4167797,9.85932545 76.2389429,9.94824385 76.0848153,10.0608755 C75.9306878,10.1735072 75.809166,10.3217045 75.7202462,10.505472 C75.6313265,10.6892394 75.5868673,10.9115354 75.5868673,11.1723666 C75.5868673,11.3976299 75.6520741,11.5873225 75.7824897,11.7414501 C75.9129053,11.8955776 76.0699945,12.0170994 76.253762,12.1060192 C76.4375294,12.1949389 76.6390778,12.2571818 76.8584131,12.2927497 C77.0777485,12.3283176 77.2763329,12.3461012 77.4541724,12.3461012 C77.6794357,12.3461012 77.9224793,12.3164618 78.1833105,12.2571819 C78.4441418,12.1979021 78.6901493,12.0971279 78.9213406,11.9548564 C79.1525319,11.8125848 79.3451885,11.631784 79.499316,11.4124487 C79.6534435,11.1931134 79.7305062,10.9233942 79.7305062,10.6032832 L79.7305062,9.09165527 Z M83.9452804,4.50341997 L85.8659371,4.50341997 L85.8659371,5.85499316 L85.9015048,5.89056088 C86.2097599,5.3807544 86.6128566,4.98062161 87.1108071,4.69015048 C87.6087576,4.39967935 88.1600517,4.25444596 88.7647059,4.25444596 C89.7724629,4.25444596 90.5668006,4.51527327 91.1477428,5.0369357 C91.7286851,5.55859814 92.0191518,6.34108005 92.0191518,7.38440492 L92.0191518,13.6976744 L89.9917921,13.6976744 L89.9917921,7.91792066 C89.9680801,7.19470683 89.8139549,6.67008827 89.5294118,6.34404925 C89.2448686,6.01801023 88.8002766,5.85499316 88.1956224,5.85499316 C87.8517995,5.85499316 87.543549,5.91723604 87.2708618,6.04172367 C86.9981747,6.16621129 86.7669868,6.3381202 86.5772914,6.55745554 C86.387596,6.77679088 86.2393986,7.03465424 86.1326949,7.33105335 C86.0259913,7.62745246 85.9726402,7.94163081 85.9726402,8.27359781 L85.9726402,13.6976744 L83.9452804,13.6976744 L83.9452804,4.50341997 Z M93.0150479,1 L93.0150479,2.03146375 L97.4254446,2.03146375 L97.4254446,13.6976744 L98.6347469,13.6976744 L98.6347469,2.03146375 L103.062927,2.03146375 L103.062927,1 L93.0150479,1 Z M104.023256,1 L104.023256,13.6976744 L105.143639,13.6976744 L105.143639,8.34473324 C105.155495,7.89420659 105.229593,7.47629012 105.365937,7.09097127 C105.502281,6.70565243 105.691973,6.3736904 105.935021,6.09507524 C106.178068,5.81646008 106.474462,5.59712802 106.824213,5.4370725 C107.173964,5.27701698 107.574097,5.19699042 108.024624,5.19699042 C108.47515,5.19699042 108.851572,5.26812514 109.153899,5.41039672 C109.456226,5.55266829 109.696306,5.74828877 109.874145,5.99726402 C110.051984,6.24623927 110.17647,6.53966999 110.247606,6.87756498 C110.318742,7.21545997 110.354309,7.5800254 110.354309,7.97127223 L110.354309,13.6976744 L111.474692,13.6976744 L111.474692,7.79343365 C111.474692,7.24805929 111.421341,6.75604415 111.314637,6.31737346 C111.207934,5.87870278 111.024169,5.50820945 110.763338,5.20588235 C110.502507,4.90355526 110.155725,4.66940347 109.722982,4.50341997 C109.29024,4.33743647 108.753765,4.25444596 108.113543,4.25444596 C107.461465,4.25444596 106.862748,4.42339092 106.317373,4.76128591 C105.771999,5.0991809 105.392614,5.54673684 105.179207,6.10396717 L105.143639,6.10396717 L105.143639,1 L104.023256,1 Z M117.467852,5.19699042 C118.001371,5.19699042 118.469674,5.3096204 118.872777,5.53488372 C119.27588,5.76014705 119.610806,6.05654171 119.877565,6.42407661 C120.144324,6.7916115 120.345873,7.20952798 120.482216,7.67783858 C120.61856,8.14614917 120.686731,8.62334458 120.686731,9.10943912 C120.686731,9.59553367 120.61856,10.0727291 120.482216,10.5410397 C120.345873,11.0093503 120.144324,11.4272667 119.877565,11.7948016 C119.610806,12.1623365 119.27588,12.4587312 118.872777,12.6839945 C118.469674,12.9092579 118.001371,13.0218878 117.467852,13.0218878 C116.934334,13.0218878 116.46603,12.9092579 116.062927,12.6839945 C115.659825,12.4587312 115.324899,12.1623365 115.05814,11.7948016 C114.79138,11.4272667 114.589832,11.0093503 114.453488,10.5410397 C114.317145,10.0727291 114.248974,9.59553367 114.248974,9.10943912 C114.248974,8.62334458 114.317145,8.14614917 114.453488,7.67783858 C114.589832,7.20952798 114.79138,6.7916115 115.05814,6.42407661 C115.324899,6.05654171 115.659825,5.76014705 116.062927,5.53488372 C116.46603,5.3096204 116.934334,5.19699042 117.467852,5.19699042 L117.467852,5.19699042 Z M117.467852,4.25444596 C116.76835,4.25444596 116.148886,4.38485962 115.609439,4.64569083 C115.069993,4.90652205 114.616509,5.25626776 114.248974,5.69493844 C113.881439,6.13360912 113.602828,6.64637189 113.413133,7.23324213 C113.223437,7.82011237 113.128591,8.44550512 113.128591,9.10943912 C113.128591,9.77337313 113.223437,10.3987659 113.413133,10.9856361 C113.602828,11.5725064 113.881439,12.0852691 114.248974,12.5239398 C114.616509,12.9626105 115.069993,13.3093923 115.609439,13.5642955 C116.148886,13.8191987 116.76835,13.9466484 117.467852,13.9466484 C118.167354,13.9466484 118.786819,13.8191987 119.326265,13.5642955 C119.865712,13.3093923 120.319196,12.9626105 120.686731,12.5239398 C121.054265,12.0852691 121.332876,11.5725064 121.522572,10.9856361 C121.712267,10.3987659 121.807114,9.77337313 121.807114,9.10943912 C121.807114,8.44550512 121.712267,7.82011237 121.522572,7.23324213 C121.332876,6.64637189 121.054265,6.13360912 120.686731,5.69493844 C120.319196,5.25626776 119.865712,4.90652205 119.326265,4.64569083 C118.786819,4.38485962 118.167354,4.25444596 117.467852,4.25444596 L117.467852,4.25444596 Z M123.478796,4.52120383 L123.478796,13.6976744 L124.599179,13.6976744 L124.599179,8.57592339 C124.599179,8.08982885 124.65253,7.64227291 124.759234,7.23324213 C124.865938,6.82421136 125.028955,6.46853776 125.24829,6.16621067 C125.467625,5.86388358 125.752164,5.62676785 126.101915,5.45485636 C126.451666,5.28294488 126.863655,5.19699042 127.337893,5.19699042 C127.693572,5.19699042 127.995895,5.25626936 128.24487,5.374829 C128.493845,5.49338865 128.69243,5.65640571 128.840629,5.86388509 C128.988829,6.07136447 129.095531,6.31440809 129.160739,6.59302326 C129.225947,6.87163842 129.25855,7.16506914 129.25855,7.47332421 L129.25855,13.6976744 L130.378933,13.6976744 L130.378933,8.50478796 C130.378933,8.07797324 130.417464,7.66598466 130.494528,7.26880985 C130.571592,6.87163504 130.704969,6.51892539 130.894665,6.21067031 C131.08436,5.90241524 131.33926,5.65640767 131.659371,5.47264022 C131.979482,5.28887277 132.382579,5.19699042 132.868673,5.19699042 C133.674879,5.19699042 134.238028,5.39557485 134.55814,5.79274966 C134.878251,6.18992447 135.038304,6.76789406 135.038304,7.52667579 L135.038304,13.6976744 L136.158687,13.6976744 L136.158687,7.47332421 C136.158687,5.32739465 135.145017,4.25444596 133.117647,4.25444596 C132.512993,4.25444596 131.943915,4.4026433 131.410397,4.69904241 C130.876878,4.99544152 130.473782,5.44596141 130.201094,6.0506156 C130.035111,5.44596141 129.706113,4.99544152 129.21409,4.69904241 C128.722068,4.4026433 128.173738,4.25444596 127.569083,4.25444596 C126.822158,4.25444596 126.208621,4.41449908 125.728454,4.73461012 C125.248288,5.05472116 124.860011,5.49931316 124.563611,6.06839945 L124.51026,6.06839945 L124.51026,4.52120383 L123.478796,4.52120383 Z M138.186047,7.33105335 L139.30643,7.33105335 C139.330141,6.58412759 139.567257,6.04172536 140.017784,5.70383037 C140.468311,5.36593538 141.049244,5.19699042 141.760602,5.19699042 C142.092569,5.19699042 142.403783,5.22366594 142.694254,5.27701778 C142.984726,5.33036962 143.239625,5.42817986 143.45896,5.57045144 C143.678296,5.71272301 143.850205,5.90537954 143.974692,6.14842681 C144.09918,6.39147408 144.161423,6.70268848 144.161423,7.08207934 C144.161423,7.3310546 144.128819,7.53260297 144.063611,7.68673051 C143.998404,7.84085804 143.906521,7.96237986 143.787962,8.05129959 C143.669402,8.14021932 143.521205,8.2024622 143.343365,8.2380301 C143.165526,8.27359799 142.95805,8.30323746 142.72093,8.32694938 C142.116276,8.39808517 141.520523,8.47218384 140.933653,8.54924761 C140.346782,8.62631137 139.8192,8.75968897 139.350889,8.9493844 C138.882579,9.13907984 138.506157,9.41472687 138.221614,9.77633379 C137.937071,10.1379407 137.794802,10.6388477 137.794802,11.2790698 C137.794802,11.7414524 137.874828,12.1415852 138.034884,12.4794802 C138.194939,12.8173752 138.414271,13.0959861 138.692886,13.3153215 C138.971502,13.5346568 139.297536,13.6947099 139.670999,13.7954856 C140.044462,13.8962613 140.444594,13.9466484 140.871409,13.9466484 C141.321936,13.9466484 141.710213,13.9051532 142.036252,13.8221614 C142.362291,13.7391697 142.652758,13.6206118 142.907661,13.4664843 C143.162564,13.3123567 143.393752,13.1197002 143.601231,12.8885089 C143.808711,12.6573176 144.013223,12.3935263 144.214774,12.0971272 L144.250342,12.0971272 C144.250342,12.3342465 144.265162,12.5506146 144.294802,12.746238 C144.324442,12.9418614 144.386684,13.1108064 144.481532,13.253078 C144.57638,13.3953495 144.709757,13.5050156 144.881669,13.5820793 C145.05358,13.6591431 145.281804,13.6976744 145.566347,13.6976744 C145.720475,13.6976744 145.847925,13.6917465 145.9487,13.6798906 C146.049476,13.6680346 146.16507,13.6502509 146.295486,13.626539 L146.295486,12.6839945 C146.188782,12.7314184 146.070224,12.75513 145.939808,12.75513 C145.501138,12.75513 145.281806,12.52987 145.281806,12.0793434 L145.281806,7.20656635 C145.281806,6.5900562 145.181032,6.08914921 144.97948,5.70383037 C144.777929,5.31851153 144.517101,5.01915291 144.19699,4.80574555 C143.876879,4.59233819 143.515278,4.44710481 143.112175,4.37004104 C142.709072,4.29297727 142.305976,4.25444596 141.902873,4.25444596 C141.369354,4.25444596 140.883267,4.3137249 140.444596,4.43228454 C140.005926,4.55084419 139.623577,4.73460888 139.297538,4.98358413 C138.971499,5.23255938 138.713635,5.55266562 138.52394,5.94391245 C138.334244,6.33515927 138.221614,6.79753495 138.186047,7.33105335 L138.186047,7.33105335 Z M144.161423,8.68262654 L144.161423,10.1409029 C144.161423,10.5914295 144.075468,10.9945263 143.903557,11.3502052 C143.731645,11.7058841 143.500457,12.0082067 143.209986,12.2571819 C142.919515,12.5061572 142.578661,12.6958498 142.187415,12.8262654 C141.796168,12.956681 141.387143,13.0218878 140.960328,13.0218878 C140.699497,13.0218878 140.444598,12.9803926 140.195622,12.8974008 C139.946647,12.8144091 139.727315,12.6928873 139.53762,12.5328317 C139.347924,12.3727762 139.196763,12.1830836 139.084131,11.9637483 C138.9715,11.7444129 138.915185,11.4924775 138.915185,11.2079343 C138.915185,10.7574077 139.048562,10.4106259 139.315321,10.1675787 C139.582081,9.92453139 139.922935,9.73780275 140.337893,9.60738714 C140.752852,9.47697153 141.212264,9.37916129 141.716142,9.31395349 C142.220021,9.24874568 142.709072,9.17464702 143.183311,9.09165527 C143.337438,9.06794334 143.515275,9.02644808 143.716826,8.96716826 C143.918378,8.90788844 144.054719,8.81304215 144.125855,8.68262654 L144.161423,8.68262654 Z M153.017784,7.20656635 L154.138167,7.20656635 C154.114455,6.70861584 154.013681,6.27587963 153.835841,5.90834473 C153.658002,5.54080984 153.417922,5.23255938 153.115595,4.98358413 C152.813268,4.73460888 152.463522,4.55084419 152.066347,4.43228454 C151.669173,4.3137249 151.2394,4.25444596 150.777018,4.25444596 C150.373915,4.25444596 149.967854,4.30186911 149.558824,4.39671683 C149.149793,4.49156454 148.779299,4.63976187 148.447332,4.84131327 C148.115365,5.04286466 147.845646,5.30961986 147.638167,5.64158687 C147.430688,5.97355387 147.326949,6.37072272 147.326949,6.83310534 C147.326949,7.22435216 147.392156,7.55335024 147.522572,7.82010944 C147.652987,8.08686864 147.833788,8.31212858 148.064979,8.49589603 C148.296171,8.67966348 148.56589,8.83378871 148.874145,8.95827633 C149.1824,9.08276396 149.52029,9.19242999 149.887825,9.2872777 L151.328317,9.60738714 C151.577293,9.66666696 151.8233,9.73780168 152.066347,9.82079343 C152.309395,9.90378518 152.525763,10.0075233 152.715458,10.1320109 C152.905154,10.2564986 153.056315,10.4106238 153.168947,10.5943912 C153.281578,10.7781587 153.337893,11.0063826 153.337893,11.2790698 C153.337893,11.5991808 153.257867,11.8689 153.097811,12.0882353 C152.937756,12.3075706 152.733243,12.4883714 152.484268,12.630643 C152.235293,12.7729145 151.965574,12.8736887 151.675103,12.9329685 C151.384631,12.9922484 151.103057,13.0218878 150.830369,13.0218878 C150.083444,13.0218878 149.458051,12.8292313 148.954172,12.4439124 C148.450294,12.0585936 148.174647,11.4865519 148.127223,10.7277702 L147.00684,10.7277702 C147.101688,11.8540868 147.484037,12.6721361 148.153899,13.1819425 C148.823761,13.691749 149.698125,13.9466484 150.777018,13.9466484 C151.203833,13.9466484 151.636569,13.8992253 152.075239,13.8043776 C152.51391,13.7095298 152.908115,13.5524407 153.257866,13.3331053 C153.607617,13.11377 153.89512,12.8292311 154.120383,12.4794802 C154.345646,12.1297292 154.458276,11.7058848 154.458276,11.2079343 C154.458276,10.8048315 154.381214,10.4550858 154.227086,10.1586867 C154.072959,9.86228762 153.874374,9.6133161 153.631327,9.41176471 C153.38828,9.21021331 153.109669,9.04719624 152.795486,8.92270862 C152.481303,8.79822099 152.16416,8.71226654 151.844049,8.66484268 L150.350205,8.32694938 C150.16051,8.27952553 149.953034,8.21728265 149.72777,8.14021888 C149.502507,8.06315511 149.295031,7.96534487 149.105335,7.84678523 C148.91564,7.72822558 148.758551,7.5829922 148.634063,7.41108071 C148.509575,7.23916923 148.447332,7.02872902 148.447332,6.77975376 C148.447332,6.48335465 148.512539,6.23438313 148.642955,6.03283174 C148.77337,5.83128034 148.945279,5.66826328 149.158687,5.54377565 C149.372094,5.41928802 149.606246,5.33036962 149.861149,5.27701778 C150.116052,5.22366594 150.367988,5.19699042 150.616963,5.19699042 C150.937074,5.19699042 151.239397,5.23552173 151.52394,5.3125855 C151.808483,5.38964927 152.060418,5.51117108 152.279754,5.67715458 C152.499089,5.84313808 152.673962,6.0535783 152.804378,6.30848153 C152.934793,6.56338477 153.005928,6.86274338 153.017784,7.20656635 L153.017784,7.20656635 Z"></path>
                </g>
            </g>
        </g>
    </g>
</svg>