<?xml version="1.0" encoding="UTF-8" standalone="no"?>
<svg width="298px" height="48px" viewBox="0 0 298 48" version="1.1" xmlns="http://www.w3.org/2000/svg" xmlns:xlink="http://www.w3.org/1999/xlink" xmlns:sketch="http://www.bohemiancoding.com/sketch/ns">
    <!-- Generator: Sketch 3.3.2 (12043) - http://www.bohemiancoding.com/sketch -->
    <title>Artboard 2</title>
    <desc>Created with Sketch.</desc>
    <defs></defs>
    <g id="Home" stroke="none" stroke-width="1" fill="none" fill-rule="evenodd" sketch:type="MSPage">
        <g id="Artboard-2" sketch:type="MSArtboardGroup" fill="#FFFFFF">
            <path d="M41.5041622,10.8733774 L64.7534375,10.8733774 L64.7534375,14.8078257 L45.6746292,14.8078257 L45.6746292,38.8333333 L41.5041622,38.8333333 L41.5041622,10.8733774 Z M8.84656249,10.8333333 L38.4512339,10.8333333 C38.4512339,10.8333333 39.4694255,24.8453711 31.1783948,32.5121234 C22.8873642,40.1788757 8.84656249,38.7230382 8.84656249,38.7230382 L8.84656249,34.6761495 C8.84656249,34.6761495 19.4305719,35.586799 26.6797532,29.864205 C33.9289345,24.1416109 33.9289345,14.8192459 33.9289345,14.8192459 L8.84656249,14.8192457 L8.84656249,10.8333333 Z" id="Rectangle-1" sketch:type="MSShapeGroup"></path>
            <path d="M83.7998214,27.8621457 C83.7998214,28.9109443 83.6708727,29.8565682 83.4129714,30.6990458 C83.1550701,31.5415234 82.7703731,32.2593379 82.2588688,32.8525109 C81.7473646,33.4456839 81.1090684,33.9013027 80.3439612,34.2193809 C79.5788541,34.5374592 78.6891079,34.696496 77.6746962,34.696496 C77.2104738,34.696496 76.754855,34.6685571 76.3078261,34.6126785 C75.8607972,34.5567998 75.3922835,34.4686849 74.9022711,34.348331 L75.0828011,32.2851309 C75.0999945,32.0960033 75.1709163,31.9434139 75.2955686,31.8273584 C75.4202209,31.7113028 75.6028982,31.6532759 75.8436061,31.6532759 C75.9897502,31.6532759 76.1810241,31.6833639 76.4174336,31.7435409 C76.6538431,31.8037178 76.9525743,31.8338059 77.3136361,31.8338059 C77.8036486,31.8338059 78.2377759,31.7628841 78.6160312,31.6210384 C78.9942864,31.4791926 79.3102108,31.2535324 79.5638137,30.9440508 C79.8174167,30.6345693 80.0086906,30.2326791 80.1376412,29.7383683 C80.2665919,29.2440575 80.3310662,28.6444459 80.3310662,27.9395157 L80.3310662,15.8440053 L83.7998214,15.8440053 L83.7998214,27.8621457 Z M105.450527,25.1670906 C105.450527,26.5339675 105.222718,27.7998141 104.767092,28.9646683 C104.311466,30.1295225 103.671021,31.1374716 102.845737,31.9885459 C102.020453,32.8396202 101.027548,33.503706 99.8669919,33.9808234 C98.7064361,34.4579408 97.4212472,34.696496 96.0113868,34.696496 C94.6015264,34.696496 93.3141884,34.4579408 92.1493342,33.9808234 C90.98448,33.503706 89.9872766,32.8396202 89.1576941,31.9885459 C88.3281115,31.1374716 87.6855171,30.1295225 87.2298915,28.9646683 C86.7742659,27.7998141 86.5464565,26.5339675 86.5464565,25.1670906 C86.5464565,23.8002137 86.7742659,22.5343672 87.2298915,21.369513 C87.6855171,20.2046588 88.3281115,19.1967097 89.1576941,18.3456354 C89.9872766,17.4945611 90.98448,16.8304752 92.1493342,16.3533578 C93.3141884,15.8762404 94.6015264,15.6376853 96.0113868,15.6376853 C97.4212472,15.6376853 98.7064361,15.8783896 99.8669919,16.3598053 C101.027548,16.8412211 102.020453,17.505307 102.845737,18.3520829 C103.671021,19.1988588 104.311466,20.2046588 104.767092,21.369513 C105.222718,22.5343672 105.450527,23.8002137 105.450527,25.1670906 L105.450527,25.1670906 Z M101.891507,25.1670906 C101.891507,24.1440821 101.756111,23.2263971 101.485314,22.414008 C101.214518,21.6016189 100.825523,20.9117433 100.318317,20.3443605 C99.8111111,19.7769776 99.1943064,19.3428503 98.4678844,19.0419654 C97.7414624,18.7410806 96.9226381,18.5906404 96.0113868,18.5906404 C95.1001355,18.5906404 94.2791621,18.7410806 93.5484417,19.0419654 C92.8177214,19.3428503 92.1966184,19.7769776 91.6851141,20.3443605 C91.1736099,20.9117433 90.7803163,21.6016189 90.5052216,22.414008 C90.2301269,23.2263971 90.0925816,24.1440821 90.0925816,25.1670906 C90.0925816,26.1900991 90.2301269,27.1077841 90.5052216,27.9201732 C90.7803163,28.7325623 91.1736099,29.4202888 91.6851141,29.9833733 C92.1966184,30.5464578 92.8177214,30.978436 93.5484417,31.2793208 C94.2791621,31.5802057 95.1001355,31.7306459 96.0113868,31.7306459 C96.9226381,31.7306459 97.7414624,31.5802057 98.4678844,31.2793208 C99.1943064,30.978436 99.8111111,30.5464578 100.318317,29.9833733 C100.825523,29.4202888 101.214518,28.7325623 101.485314,27.9201732 C101.756111,27.1077841 101.891507,26.1900991 101.891507,25.1670906 L101.891507,25.1670906 Z M111.769077,27.2045007 L111.769077,34.490176 L108.300322,34.490176 L108.300322,15.8440053 L113.987017,15.8440053 C115.259331,15.8440053 116.348947,15.9751032 117.2559,16.2373028 C118.162853,16.4995025 118.906457,16.8670063 119.486735,17.3398253 C120.067013,17.8126444 120.492544,18.3778696 120.76334,19.0355179 C121.034137,19.6931662 121.169533,20.4174282 121.169533,21.2083255 C121.169533,21.8358853 121.077119,22.4290494 120.89229,22.9878355 C120.707461,23.5466217 120.440967,24.05382 120.0928,24.5094456 C119.744633,24.9650712 119.314804,25.3648122 118.8033,25.7086806 C118.291796,26.052549 117.709378,26.3276396 117.056028,26.5339607 C117.49446,26.7832653 117.872709,27.1400234 118.190788,27.6042457 L122.858778,34.490176 L119.738188,34.490176 C119.437303,34.490176 119.181555,34.4299999 118.970935,34.3096459 C118.760316,34.189292 118.581937,34.0173604 118.435793,33.7938459 L114.515712,27.8234607 C114.369568,27.5999463 114.208382,27.4409095 114.03215,27.3463457 C113.855917,27.2517819 113.595871,27.2045007 113.252002,27.2045007 L111.769077,27.2045007 Z M111.769077,24.7157656 L113.935437,24.7157656 C114.588787,24.7157656 115.158311,24.6340981 115.644025,24.4707606 C116.129739,24.3074231 116.52948,24.0817629 116.84326,23.7937731 C117.15704,23.5057833 117.391297,23.1640692 117.546038,22.7686205 C117.700778,22.3731719 117.778148,21.9390445 117.778148,21.4662255 C117.778148,20.5205874 117.466522,19.7941763 116.84326,19.2869704 C116.219999,18.7797645 115.267927,18.5261654 113.987017,18.5261654 L111.769077,18.5261654 L111.769077,24.7157656 Z M141.633898,25.1670906 C141.633898,26.5339675 141.406089,27.7890683 140.950463,28.9324308 C140.494838,30.0757932 139.854392,31.0601017 139.029108,31.8853859 C138.203824,32.71067 137.210919,33.3511153 136.050363,33.8067409 C134.889807,34.2623666 133.604619,34.490176 132.194758,34.490176 L125.076718,34.490176 L125.076718,15.8440053 L132.194758,15.8440053 C133.604619,15.8440053 134.889807,16.0739638 136.050363,16.5338878 C137.210919,16.9938118 138.203824,17.6342571 139.029108,18.4552429 C139.854392,19.2762287 140.494838,20.2583881 140.950463,21.4017505 C141.406089,22.5451129 141.633898,23.8002137 141.633898,25.1670906 L141.633898,25.1670906 Z M138.087773,25.1670906 C138.087773,24.1440821 137.950228,23.2263971 137.675133,22.414008 C137.400039,21.6016189 137.008894,20.9138925 136.501688,20.350808 C135.994482,19.7877235 135.377678,19.3557453 134.651256,19.0548604 C133.924834,18.7539756 133.106009,18.6035354 132.194758,18.6035354 L128.571263,18.6035354 L128.571263,31.7306459 L132.194758,31.7306459 C133.106009,31.7306459 133.924834,31.5802057 134.651256,31.2793208 C135.377678,30.978436 135.994482,30.5464578 136.501688,29.9833733 C137.008894,29.4202888 137.400039,28.7325623 137.675133,27.9201732 C137.950228,27.1077841 138.087773,26.1900991 138.087773,25.1670906 L138.087773,25.1670906 Z M160.744289,34.490176 L158.062129,34.490176 C157.761244,34.490176 157.514092,34.4149559 157.320666,34.2645134 C157.127241,34.114071 156.987546,33.9270954 156.901579,33.7035809 L155.508919,29.8995558 L147.784814,29.8995558 L146.392154,33.7035809 C146.32338,33.9013053 146.187984,34.0818335 145.985961,34.2451709 C145.783938,34.4085084 145.536787,34.490176 145.244499,34.490176 L142.549443,34.490176 L149.873804,15.8440053 L153.419929,15.8440053 L160.744289,34.490176 Z M148.674569,27.4495057 L154.619164,27.4495057 L152.349644,21.2470105 C152.246483,20.9719158 152.132579,20.6473948 152.007926,20.273438 C151.883274,19.8994811 151.760773,19.4932926 151.640419,19.0548604 C151.520065,19.4932926 151.401862,19.9016302 151.285806,20.2798855 C151.169751,20.6581407 151.055846,20.9891091 150.944089,21.2728005 L148.674569,27.4495057 Z M164.483839,15.8440053 C164.63858,15.8440053 164.767529,15.8504527 164.870689,15.8633478 C164.97385,15.8762429 165.066263,15.9020326 165.147932,15.9407178 C165.229601,15.979403 165.309119,16.0352808 165.386489,16.1083528 C165.46386,16.1814248 165.549825,16.2781364 165.644389,16.3984903 L175.431695,28.8679558 C175.397308,28.5670709 175.373667,28.272638 175.360772,27.9846482 C175.347877,27.6966584 175.34143,27.4280153 175.34143,27.1787107 L175.34143,15.8440053 L178.397545,15.8440053 L178.397545,34.490176 L176.60514,34.490176 C176.330045,34.490176 176.102236,34.4471931 175.921705,34.361226 C175.741174,34.2752589 175.564944,34.1205204 175.39301,33.8970059 L165.644389,21.4791205 C165.670179,21.7542152 165.689522,22.0271567 165.702417,22.297953 C165.715312,22.5687494 165.721759,22.8159011 165.721759,23.0394155 L165.721759,34.490176 L162.665644,34.490176 L162.665644,15.8440053 L164.483839,15.8440053 Z M194.903145,16.2437503 L194.903145,17.3656153 L188.49433,17.3656153 L188.49433,34.490176 L187.17904,34.490176 L187.17904,17.3656153 L180.73154,17.3656153 L180.73154,16.2437503 L194.903145,16.2437503 Z M212.143761,34.490176 L210.815576,34.490176 L210.815576,25.7473656 L199.390605,25.7473656 L199.390605,34.490176 L198.06242,34.490176 L198.06242,16.2437503 L199.390605,16.2437503 L199.390605,24.7544506 L210.815576,24.7544506 L210.815576,16.2437503 L212.143761,16.2437503 L212.143761,34.490176 Z M233.833152,25.3605156 C233.833152,26.7703761 233.622535,28.0491175 233.201297,29.1967783 C232.780058,30.344439 232.186894,31.3244493 231.421787,32.1368384 C230.656679,32.9492275 229.741144,33.5767779 228.675152,34.0195084 C227.609159,34.462239 226.42713,34.683601 225.129026,34.683601 C223.848117,34.683601 222.674683,34.462239 221.608691,34.0195084 C220.542699,33.5767779 219.627163,32.9492275 218.862056,32.1368384 C218.096949,31.3244493 217.501636,30.344439 217.076099,29.1967783 C216.650561,28.0491175 216.437796,26.7703761 216.437796,25.3605156 C216.437796,23.9592519 216.650561,22.6848088 217.076099,21.537148 C217.501636,20.3894872 218.096949,19.409477 218.862056,18.5970879 C219.627163,17.7846988 220.542699,17.1549992 221.608691,16.7079703 C222.674683,16.2609414 223.848117,16.0374303 225.129026,16.0374303 C226.42713,16.0374303 227.609159,16.2587923 228.675152,16.7015228 C229.741144,17.1442534 230.656679,17.7739529 231.421787,18.5906404 C232.186894,19.4073278 232.780058,20.3894872 233.201297,21.537148 C233.622535,22.6848088 233.833152,23.9592519 233.833152,25.3605156 L233.833152,25.3605156 Z M232.466282,25.3605156 C232.466282,24.0882026 232.290052,22.9448573 231.937587,21.9304455 C231.585122,20.9160337 231.088669,20.0563756 230.448214,19.3514454 C229.807759,18.6465152 229.036216,18.1070797 228.133561,17.7331229 C227.230907,17.359166 226.229405,17.1721903 225.129026,17.1721903 C224.045841,17.1721903 223.055085,17.359166 222.156729,17.7331229 C221.258373,18.1070797 220.48468,18.6465152 219.835629,19.3514454 C219.186577,20.0563756 218.683677,20.9160337 218.326914,21.9304455 C217.97015,22.9448573 217.791771,24.0882026 217.791771,25.3605156 C217.791771,26.6414254 217.97015,27.7869198 218.326914,28.7970333 C218.683677,29.8071467 219.186577,30.6646556 219.835629,31.3695858 C220.48468,32.0745161 221.258373,32.6118024 222.156729,32.9814609 C223.055085,33.3511194 224.045841,33.5359459 225.129026,33.5359459 C226.229405,33.5359459 227.230907,33.3511194 228.133561,32.9814609 C229.036216,32.6118024 229.807759,32.0745161 230.448214,31.3695858 C231.088669,30.6646556 231.585122,29.8071467 231.937587,28.7970333 C232.290052,27.7869198 232.466282,26.6414254 232.466282,25.3605156 L232.466282,25.3605156 Z M246.895787,29.1774358 C247.024738,29.4181436 247.136493,29.6760411 247.231057,29.9511358 C247.282637,29.8135884 247.336366,29.6781923 247.392245,29.5449433 C247.448123,29.4116943 247.510449,29.2848947 247.579222,29.1645408 L254.748842,16.4887553 C254.817616,16.3769981 254.886389,16.3082254 254.955162,16.2824353 C255.023936,16.2566452 255.118499,16.2437503 255.238852,16.2437503 L256.154397,16.2437503 L256.154397,34.490176 L254.993847,34.490176 L254.993847,18.9388054 C254.993847,18.7152909 255.006742,18.478885 255.032532,18.2295804 L247.850017,30.9827358 C247.729663,31.2062503 247.557732,31.3180058 247.334217,31.3180058 L247.127897,31.3180058 C246.912979,31.3180058 246.741048,31.2062503 246.612097,30.9827358 L239.236157,18.2166854 C239.261947,18.46599 239.274842,18.7066942 239.274842,18.9388054 L239.274842,34.490176 L238.127187,34.490176 L238.127187,16.2437503 L239.029837,16.2437503 C239.150191,16.2437503 239.246902,16.2566452 239.319974,16.2824353 C239.393046,16.3082254 239.463968,16.3769981 239.532742,16.4887553 L246.895787,29.1774358 Z M260.216323,33.4972609 C260.216323,33.3339234 260.246411,33.179185 260.306588,33.0330409 C260.366765,32.8868968 260.450581,32.7600973 260.55804,32.6526384 C260.665499,32.5451795 260.790149,32.4592137 260.931995,32.3947384 C261.073841,32.3302631 261.230728,32.2980259 261.402663,32.2980259 C261.566,32.2980259 261.720739,32.3302631 261.866883,32.3947384 C262.013027,32.4592137 262.139826,32.5451795 262.247285,32.6526384 C262.354744,32.7600973 262.44071,32.8868968 262.505185,33.0330409 C262.569661,33.179185 262.601898,33.3339234 262.601898,33.4972609 C262.601898,33.6691951 262.569661,33.8260827 262.505185,33.9679284 C262.44071,34.1097742 262.354744,34.2344246 262.247285,34.3418835 C262.139826,34.4493423 262.013027,34.533159 261.866883,34.593336 C261.720739,34.6535129 261.566,34.683601 261.402663,34.683601 C261.067391,34.683601 260.785853,34.5696963 260.55804,34.3418835 C260.330227,34.1140706 260.216323,33.8325326 260.216323,33.4972609 L260.216323,33.4972609 Z M280.396998,34.490176 L279.378293,34.490176 C279.257939,34.490176 279.159079,34.4579388 279.081708,34.3934635 C279.004338,34.3289881 278.944162,34.2451715 278.901178,34.1420109 L276.747713,28.8421658 L267.785688,28.8421658 L265.645118,34.1420109 C265.610731,34.2365748 265.550555,34.3182423 265.464588,34.387016 C265.378621,34.4557896 265.275462,34.490176 265.155108,34.490176 L264.149298,34.490176 L271.615503,16.2437503 L272.930793,16.2437503 L280.396998,34.490176 Z M268.185433,27.8621457 L276.360863,27.8621457 L272.634208,18.6422204 C272.574031,18.4960763 272.513855,18.3305921 272.453678,18.1457629 C272.393501,17.9609336 272.333325,17.7653614 272.273148,17.5590404 C272.212971,17.7653614 272.152795,17.9609336 272.092618,18.1457629 C272.032441,18.3305921 271.972265,18.5003746 271.912088,18.6551154 L268.185433,27.8621457 Z M292.105659,18.4616904 C292.028288,18.6078345 291.916533,18.6809054 291.770389,18.6809054 C291.658632,18.6809054 291.514639,18.601387 291.338406,18.4423479 C291.162174,18.2833088 290.923619,18.1070788 290.622734,17.9136529 C290.321849,17.7202269 289.945748,17.5418478 289.494421,17.3785103 C289.043094,17.2151729 288.486465,17.1335053 287.824519,17.1335053 C287.162572,17.1335053 286.580154,17.2280677 286.077246,17.4171953 C285.574339,17.606323 285.153106,17.8642204 284.813536,18.1908954 C284.473966,18.5175704 284.216069,18.8958199 284.039836,19.3256554 C283.863603,19.7554909 283.775488,20.2068114 283.775488,20.6796305 C283.775488,21.2985936 283.906586,21.8100902 284.168786,22.2141355 C284.430986,22.6181809 284.776998,22.9620441 285.206834,23.2457356 C285.636669,23.529427 286.124525,23.7679821 286.670416,23.9614081 C287.216307,24.1548341 287.777234,24.346108 288.353214,24.5352356 C288.929193,24.7243632 289.49012,24.9328303 290.036011,25.1606431 C290.581902,25.3884559 291.069758,25.6742923 291.499594,26.0181607 C291.929429,26.3620291 292.275442,26.7854107 292.537641,27.2883182 C292.799841,27.7912257 292.930939,28.416627 292.930939,29.1645408 C292.930939,29.929648 292.799841,30.6496116 292.537641,31.3244533 C292.275442,31.9992951 291.895043,32.5860117 291.396434,33.0846209 C290.897825,33.5832301 290.287467,33.9765237 289.565344,34.2645134 C288.84322,34.5525032 288.017948,34.696496 287.089504,34.696496 C285.885964,34.696496 284.850076,34.4837306 283.981808,34.0581934 C283.113541,33.6326563 282.352743,33.0502379 281.699393,32.3109209 L282.060453,31.7435409 C282.163614,31.6145902 282.283966,31.5501159 282.421513,31.5501159 C282.498884,31.5501159 282.597744,31.6016953 282.718098,31.7048559 C282.838452,31.8080164 282.984594,31.9348159 283.156528,32.0852584 C283.328463,32.2357008 283.534781,32.3990358 283.775488,32.5752684 C284.016196,32.7515009 284.295585,32.914836 284.613663,33.0652784 C284.931742,33.2157208 285.297096,33.3425204 285.709739,33.4456809 C286.122381,33.5488414 286.590894,33.6004209 287.115294,33.6004209 C287.837417,33.6004209 288.482161,33.4908145 289.049544,33.2715984 C289.616927,33.0523823 290.096186,32.7536511 290.487336,32.3753959 C290.878487,31.9971406 291.177218,31.5479693 291.383539,31.0278683 C291.58986,30.5077674 291.693019,29.9511388 291.693019,29.3579658 C291.693019,28.7132125 291.561921,28.1823736 291.299721,27.7654332 C291.037522,27.3484928 290.691509,27.0003313 290.261674,26.7209382 C289.831838,26.4415451 289.343982,26.2072883 288.798091,26.0181607 C288.2522,25.829033 287.691273,25.6442065 287.115294,25.4636756 C286.539314,25.2831447 285.978387,25.0811251 285.432496,24.8576106 C284.886605,24.6340962 284.398749,24.3482598 283.968913,24.0000931 C283.539078,23.6519263 283.193066,23.217799 282.930866,22.697698 C282.668666,22.1775971 282.537568,21.5264061 282.537568,20.7441055 C282.537568,20.1337391 282.653622,19.5448733 282.885733,18.9774904 C283.117845,18.4101075 283.45741,17.9093567 283.904438,17.4752229 C284.351467,17.041089 284.903798,16.6929275 285.561446,16.4307278 C286.219094,16.1685282 286.969146,16.0374303 287.811624,16.0374303 C288.757262,16.0374303 289.606174,16.1878705 290.358386,16.4887553 C291.110598,16.7896402 291.796176,17.2495572 292.415139,17.8685204 L292.105659,18.4616904 Z" id="JORDANTHOM.AS" sketch:type="MSShapeGroup"></path>
        </g>
    </g>
</svg>