<?xml version="1.0" encoding="UTF-8" standalone="no"?>
<svg width="253px" height="35px" viewBox="0 0 253 35" version="1.1" xmlns="http://www.w3.org/2000/svg" xmlns:xlink="http://www.w3.org/1999/xlink" xmlns:sketch="http://www.bohemiancoding.com/sketch/ns">
    <!-- Generator: Sketch 3.2.2 (9983) - http://www.bohemiancoding.com/sketch -->
    <title>Path 1 + JordanThom.as</title>
    <desc>Created with Sketch.</desc>
    <defs></defs>
    <g id="Page-1" stroke="none" stroke-width="1" fill="none" fill-rule="evenodd" sketch:type="MSPage">
        <g id="Desktop-HD" sketch:type="MSArtboardGroup" transform="translate(-63.000000, -57.000000)">
            <g id="Navbar" sketch:type="MSLayerGroup" transform="translate(63.000000, 57.000000)">
                <g id="Path-1-+-JordanThom.as" transform="translate(0.491443, 0.000000)">
                    <path d="M190.367941,0.931385237 L222.076432,0.931385237 C222.076432,0.931385237 222.032115,13.8850288 214.003649,24.0797165 C205.975182,34.2744041 190.367941,33.2163802 190.367941,33.2163802 L190.367941,25.6812922 C190.367941,25.6812922 198.484411,26.0461703 204.441352,21.4164819 C211.412693,15.9984109 212.492031,9.26837181 212.492031,9.26837181 L190.367941,9.2683715 L190.367941,0.931385237 Z M224.660116,34.8827203 L224.660116,0.912133078 L251.693095,0.912133078 L251.693095,9.07866822 L233.436182,9.07866822 L233.436183,34.8827213 L224.660116,34.8827203 Z" id="Path-1" fill="#767676" sketch:type="MSShapeGroup"></path>
                    <text id="JordanThom.as" sketch:type="MSTextLayer" font-family="Helvetica Neue" font-size="25.4098361" font-weight="260" fill="#000000">
                        <tspan x="0" y="26">Jordan</tspan>
                        <tspan x="75.797541" y="26" font-weight="420">Thom.as</tspan>
                    </text>
                </g>
            </g>
        </g>
    </g>
</svg>