<?xml version="1.0" encoding="UTF-8" standalone="no"?>
<svg width="252px" height="35px" viewBox="0 0 252 35" version="1.1" xmlns="http://www.w3.org/2000/svg" xmlns:xlink="http://www.w3.org/1999/xlink" xmlns:sketch="http://www.bohemiancoding.com/sketch/ns">
    <!-- Generator: Sketch 3.2.2 (9983) - http://www.bohemiancoding.com/sketch -->
    <title>Path 1 + JordanThom.as</title>
    <desc>Created with Sketch.</desc>
    <defs></defs>
    <g id="Page-1" stroke="none" stroke-width="1" fill="none" fill-rule="evenodd" sketch:type="MSPage">
        <g id="Desktop-HD" sketch:type="MSArtboardGroup" transform="translate(-64.000000, -57.000000)">
            <g id="Navbar" sketch:type="MSLayerGroup" transform="translate(63.000000, 57.000000)">
                <g id="Path-1-+-JordanThom.as" transform="translate(0.491443, 0.000000)" sketch:type="MSShapeGroup">
                    <path d="M190.367941,0.931385237 L222.076432,0.931385237 C222.076432,0.931385237 222.032115,13.8850288 214.003649,24.0797165 C205.975182,34.2744041 190.367941,33.2163802 190.367941,33.2163802 L190.367941,25.6812922 C190.367941,25.6812922 198.484411,26.0461703 204.441352,21.4164819 C211.412693,15.9984109 212.492031,9.26837181 212.492031,9.26837181 L190.367941,9.2683715 L190.367941,0.931385237 Z M224.660116,34.8827203 L224.660116,0.912133078 L251.693095,0.912133078 L251.693095,9.07866822 L233.436182,9.07866822 L233.436183,34.8827213 L224.660116,34.8827203 Z" id="Path-1" fill="#767676"></path>
                    <path d="M9.14754098,7.85737705 L9.14754098,20.2065574 C9.14754098,21.0366162 9.09672182,21.7480845 8.99508197,22.3409836 C8.89344211,22.9338827 8.71557504,23.4208997 8.46147541,23.8020492 C8.20737578,24.1831986 7.86011149,24.462704 7.41967213,24.6405738 C6.97923277,24.8184435 6.42022197,24.907377 5.74262295,24.907377 C4.84480425,24.907377 4.16298047,24.7337449 3.69713115,24.3864754 C3.23128182,24.0392059 2.89672233,23.6199478 2.69344262,23.1286885 C2.49016292,22.6374292 2.37158487,22.1207677 2.33770492,21.5786885 C2.30382497,21.0366093 2.27841539,20.570767 2.26147541,20.1811475 L0.533606557,20.1811475 C0.533606557,20.9773264 0.601365443,21.7480837 0.736885246,22.4934426 C0.872405049,23.2388015 1.12650087,23.8952157 1.49918033,24.4627049 C1.87185979,25.0301941 2.38852129,25.4875666 3.04918033,25.8348361 C3.70983937,26.1821056 4.55682543,26.3557377 5.59016393,26.3557377 C6.57268251,26.3557377 7.39849392,26.2456295 8.06762295,26.0254098 C8.73675198,25.8051902 9.27882306,25.4748656 9.69385246,25.0344262 C10.1088819,24.5939869 10.4095619,24.0349761 10.5959016,23.357377 C10.7822414,22.679778 10.8754098,21.8751413 10.8754098,20.9434426 L10.8754098,7.85737705 L9.14754098,7.85737705 Z M19.7688525,13.8540984 C20.5311514,13.8540984 21.2002703,14.0150257 21.7762295,14.3368852 C22.3521887,14.6587448 22.8307358,15.0822378 23.2118852,15.607377 C23.5930347,16.1325163 23.88101,16.7296415 24.0758197,17.3987705 C24.2706294,18.0678995 24.3680328,18.7497233 24.3680328,19.4442623 C24.3680328,20.1388013 24.2706294,20.8206251 24.0758197,21.4897541 C23.88101,22.1588831 23.5930347,22.7560083 23.2118852,23.2811475 C22.8307358,23.8062868 22.3521887,24.2297798 21.7762295,24.5516393 C21.2002703,24.8734989 20.5311514,25.0344262 19.7688525,25.0344262 C19.0065536,25.0344262 18.3374346,24.8734989 17.7614754,24.5516393 C17.1855162,24.2297798 16.7069691,23.8062868 16.3258197,23.2811475 C15.9446702,22.7560083 15.656695,22.1588831 15.4618852,21.4897541 C15.2670755,20.8206251 15.1696721,20.1388013 15.1696721,19.4442623 C15.1696721,18.7497233 15.2670755,18.0678995 15.4618852,17.3987705 C15.656695,16.7296415 15.9446702,16.1325163 16.3258197,15.607377 C16.7069691,15.0822378 17.1855162,14.6587448 17.7614754,14.3368852 C18.3374346,14.0150257 19.0065536,13.8540984 19.7688525,13.8540984 L19.7688525,13.8540984 Z M19.7688525,12.507377 C18.7693939,12.507377 17.8842935,12.693714 17.1135246,13.0663934 C16.3427557,13.4390729 15.6948114,13.9387947 15.1696721,14.5655738 C14.6445329,15.1923529 14.2464494,15.9249958 13.9754098,16.7635246 C13.7043702,17.6020534 13.5688525,18.4956237 13.5688525,19.4442623 C13.5688525,20.3929009 13.7043702,21.2864712 13.9754098,22.125 C14.2464494,22.9635288 14.6445329,23.6961717 15.1696721,24.3229508 C15.6948114,24.9497299 16.3427557,25.4452168 17.1135246,25.8094262 C17.8842935,26.1736357 18.7693939,26.3557377 19.7688525,26.3557377 C20.768311,26.3557377 21.6534114,26.1736357 22.4241803,25.8094262 C23.1949492,25.4452168 23.8428935,24.9497299 24.3680328,24.3229508 C24.893172,23.6961717 25.2912555,22.9635288 25.5622951,22.125 C25.8333347,21.2864712 25.9688525,20.3929009 25.9688525,19.4442623 C25.9688525,18.4956237 25.8333347,17.6020534 25.5622951,16.7635246 C25.2912555,15.9249958 24.893172,15.1923529 24.3680328,14.5655738 C23.8428935,13.9387947 23.1949492,13.4390729 22.4241803,13.0663934 C21.6534114,12.693714 20.768311,12.507377 19.7688525,12.507377 L19.7688525,12.507377 Z M28.357377,12.8885246 L28.357377,26 L29.9581967,26 L29.9581967,19.0122951 C29.9581967,18.3177561 30.0767748,17.6782816 30.3139344,17.0938525 C30.5510941,16.5094233 30.8856536,16.0054666 31.317623,15.5819672 C31.7495923,15.1584678 32.2620189,14.8323782 32.854918,14.6036885 C33.4478172,14.3749989 34.1084663,14.2775955 34.8368852,14.3114754 L34.8368852,12.7106557 C33.651087,12.6598358 32.6304688,12.9224015 31.775,13.4983607 C30.9195312,14.0743198 30.2885266,14.8958963 29.8819672,15.9631148 L29.8311475,15.9631148 L29.8311475,12.8885246 L28.357377,12.8885246 Z M47.4401639,26 L47.4401639,7.85737705 L45.8393443,7.85737705 L45.8393443,15.3786885 L45.7885246,15.3786885 C45.6191248,14.9043692 45.3777338,14.489346 45.0643443,14.1336066 C44.7509547,13.7778671 44.3909856,13.477187 43.9844262,13.2315574 C43.5778668,12.9859277 43.141669,12.8038257 42.6758197,12.6852459 C42.2099703,12.5666661 41.7314232,12.507377 41.2401639,12.507377 C40.2407054,12.507377 39.3725447,12.693714 38.6356557,13.0663934 C37.8987668,13.4390729 37.2847019,13.9430296 36.7934426,14.5782787 C36.3021833,15.2135278 35.9379793,15.9504056 35.7008197,16.7889344 C35.46366,17.6274632 35.345082,18.5125636 35.345082,19.4442623 C35.345082,20.3759609 35.46366,21.2610614 35.7008197,22.0995902 C35.9379793,22.9381189 36.3021833,23.6749968 36.7934426,24.3102459 C37.2847019,24.945495 37.8987668,25.4452168 38.6356557,25.8094262 C39.3725447,26.1736357 40.2407054,26.3557377 41.2401639,26.3557377 C41.7144832,26.3557377 42.1930304,26.2879788 42.6758197,26.152459 C43.158609,26.0169392 43.6117465,25.8263673 44.0352459,25.5807377 C44.4587453,25.3351081 44.8356541,25.034428 45.1659836,24.6786885 C45.4963131,24.322949 45.746174,23.9333355 45.9155738,23.5098361 L45.9663934,23.5098361 L45.9663934,26 L47.4401639,26 Z M36.9459016,19.4442623 C36.9459016,18.7666633 37.0263653,18.0933094 37.1872951,17.4241803 C37.3482248,16.7550513 37.6023207,16.1579261 37.9495902,15.6327869 C38.2968597,15.1076476 38.7415273,14.6799197 39.2836066,14.3495902 C39.8256858,14.0192606 40.477865,13.8540984 41.2401639,13.8540984 C42.0871627,13.8540984 42.8028659,14.0192606 43.3872951,14.3495902 C43.9717242,14.6799197 44.4460364,15.1076476 44.8102459,15.6327869 C45.1744554,16.1579261 45.4370211,16.7550513 45.5979508,17.4241803 C45.7588806,18.0933094 45.8393443,18.7666633 45.8393443,19.4442623 C45.8393443,20.1218613 45.7588806,20.7952152 45.5979508,21.4643443 C45.4370211,22.1334733 45.1744554,22.7305985 44.8102459,23.2557377 C44.4460364,23.7808769 43.9717242,24.2086049 43.3872951,24.5389344 C42.8028659,24.8692639 42.0871627,25.0344262 41.2401639,25.0344262 C40.477865,25.0344262 39.8256858,24.8692639 39.2836066,24.5389344 C38.7415273,24.2086049 38.2968597,23.7808769 37.9495902,23.2557377 C37.6023207,22.7305985 37.3482248,22.1334733 37.1872951,21.4643443 C37.0263653,20.7952152 36.9459016,20.1218613 36.9459016,19.4442623 L36.9459016,19.4442623 Z M50.3368852,16.9032787 L51.9377049,16.9032787 C51.9715849,15.8360602 52.3103793,15.061068 52.9540984,14.5782787 C53.5978174,14.0954894 54.4278638,13.8540984 55.4442623,13.8540984 C55.9185816,13.8540984 56.3632493,13.8922127 56.7782787,13.9684426 C57.1933081,14.0446725 57.5575121,14.1844252 57.8709016,14.3877049 C58.1842912,14.5909846 58.4299171,14.8662551 58.6077869,15.2135246 C58.7856566,15.5607941 58.8745902,16.0054618 58.8745902,16.547541 C58.8745902,16.9032805 58.8280059,17.1912557 58.7348361,17.4114754 C58.6416662,17.6316951 58.5103834,17.8053272 58.3409836,17.932377 C58.1715839,18.0594269 57.9598373,18.1483604 57.7057377,18.1991803 C57.4516381,18.2500003 57.155193,18.2923496 56.8163934,18.3262295 C55.9524547,18.4278694 55.1012337,18.5337426 54.2627049,18.6438525 C53.4241761,18.7539623 52.6703585,18.9445342 52.0012295,19.2155738 C51.3321005,19.4866134 50.7942643,19.8804619 50.3877049,20.3971311 C49.9811455,20.9138004 49.7778689,21.6295036 49.7778689,22.5442623 C49.7778689,23.2049213 49.892212,23.7766369 50.1209016,24.2594262 C50.3495913,24.7422155 50.6629762,25.140299 51.0610656,25.4536885 C51.459155,25.7670781 51.9249973,25.9957643 52.4586066,26.1397541 C52.9922158,26.2837439 53.5639314,26.3557377 54.1737705,26.3557377 C54.8174896,26.3557377 55.3722654,26.2964487 55.8381148,26.1778689 C56.3039641,26.059289 56.7189873,25.8898918 57.0831967,25.6696721 C57.4474062,25.4494525 57.7777308,25.174182 58.0741803,24.8438525 C58.3706299,24.5135229 58.6628401,24.1366141 58.9508197,23.7131148 L59.0016393,23.7131148 C59.0016393,24.0519143 59.022814,24.3610642 59.0651639,24.6405738 C59.1075139,24.9200834 59.1964474,25.1614744 59.3319672,25.3647541 C59.467487,25.5680338 59.6580589,25.7247262 59.9036885,25.8348361 C60.1493182,25.9449459 60.4754078,26 60.8819672,26 C61.1021869,26 61.2842889,25.9915301 61.4282787,25.9745902 C61.5722685,25.9576502 61.7374308,25.9322406 61.9237705,25.8983607 L61.9237705,24.5516393 C61.7713107,24.6193992 61.6019135,24.6532787 61.4155738,24.6532787 C60.7887947,24.6532787 60.4754098,24.331424 60.4754098,23.6877049 L60.4754098,16.7254098 C60.4754098,15.8445311 60.3314222,15.1288279 60.0434426,14.5782787 C59.755463,14.0277295 59.3827892,13.6000015 58.9254098,13.295082 C58.4680305,12.9901624 57.951369,12.7826508 57.3754098,12.672541 C56.7994507,12.5624311 56.2235001,12.507377 55.647541,12.507377 C54.8852421,12.507377 54.1907135,12.5920757 53.5639344,12.7614754 C52.9371553,12.9308752 52.3908493,13.1934408 51.925,13.5491803 C51.4591507,13.9049198 51.0907117,14.3622923 50.8196721,14.9213115 C50.5486325,15.4803307 50.3877052,16.1409798 50.3368852,16.9032787 L50.3368852,16.9032787 Z M58.8745902,18.8344262 L58.8745902,20.9180328 C58.8745902,21.5617519 58.7517772,22.1377024 58.5061475,22.6459016 C58.2605179,23.1541009 57.9301933,23.5860638 57.5151639,23.9418033 C57.1001345,24.2975428 56.6131175,24.5685783 56.0540984,24.754918 C55.4950792,24.9412578 54.9106588,25.0344262 54.3008197,25.0344262 C53.9281402,25.0344262 53.5639362,24.9751372 53.2081967,24.8565574 C52.8524572,24.7379775 52.5390724,24.5643454 52.2680328,24.3356557 C51.9969932,24.1069661 51.7810117,23.8359305 51.620082,23.522541 C51.4591522,23.2091514 51.3786885,22.8491824 51.3786885,22.442623 C51.3786885,21.7989039 51.5692604,21.303417 51.9504098,20.9561475 C52.3315593,20.608878 52.8185763,20.3420774 53.4114754,20.1557377 C54.0043745,19.969398 54.6607887,19.8296453 55.3807377,19.7364754 C56.1006867,19.6433055 56.7994502,19.5374323 57.4770492,19.4188525 C57.6972689,19.3849725 57.9513647,19.3256835 58.2393443,19.2409836 C58.5273238,19.1562837 58.7221306,19.020766 58.8237705,18.8344262 L58.8745902,18.8344262 Z M63.6516393,12.8885246 L63.6516393,26 L65.252459,26 L65.252459,18.3516393 C65.269399,17.7079203 65.3752722,17.1107951 65.570082,16.5602459 C65.7648917,16.0096967 66.0359272,15.5353845 66.3831967,15.1372951 C66.7304662,14.7392057 67.1539593,14.4258208 67.6536885,14.1971311 C68.1534178,13.9684415 68.7251334,13.8540984 69.3688525,13.8540984 C70.0125715,13.8540984 70.5504077,13.9557367 70.982377,14.1590164 C71.4143464,14.3622961 71.7573758,14.6418015 72.0114754,14.997541 C72.265575,15.3532805 72.4434421,15.7725386 72.545082,16.2553279 C72.6467218,16.7381172 72.697541,17.2590136 72.697541,17.8180328 L72.697541,26 L74.2983607,26 L74.2983607,17.5639344 C74.2983607,16.7846956 74.2221319,16.0816971 74.0696721,15.454918 C73.9172124,14.8281389 73.6546467,14.2987727 73.2819672,13.8668033 C72.9092878,13.4348339 72.4138009,13.1002744 71.7954918,12.8631148 C71.1771827,12.6259551 70.4106603,12.507377 69.4959016,12.507377 C68.564203,12.507377 67.7087471,12.7487681 66.9295082,13.2315574 C66.1502693,13.7143467 65.6081982,14.3538212 65.3032787,15.15 L65.252459,15.15 L65.252459,12.8885246 L63.6516393,12.8885246 Z M76.0008197,7.85737705 L90.6877049,7.85737705 L90.6877049,10.6016393 L84.9196721,10.6016393 L84.9196721,26 L81.7434426,26 L81.7434426,10.6016393 L76.0008197,10.6016393 L76.0008197,7.85737705 Z M92.3901639,7.85737705 L95.2868852,7.85737705 L95.2868852,14.5909836 L95.3377049,14.5909836 C95.6934444,13.9980845 96.2228107,13.5025976 96.9258197,13.1045082 C97.6288287,12.7064188 98.4122908,12.507377 99.2762295,12.507377 C100.716127,12.507377 101.851089,12.8800509 102.681148,13.6254098 C103.511206,14.3707688 103.92623,15.4887904 103.92623,16.9795082 L103.92623,26 L101.029508,26 L101.029508,17.7418033 C100.995628,16.7084648 100.775412,15.9588821 100.368852,15.4930328 C99.962293,15.0271835 99.3270535,14.7942623 98.4631148,14.7942623 C97.9718555,14.7942623 97.5314227,14.8831958 97.1418033,15.0610656 C96.7521838,15.2389353 96.4218593,15.4845613 96.1508197,15.7979508 C95.8797801,16.1113404 95.6680335,16.4797793 95.5155738,16.9032787 C95.363114,17.3267781 95.2868852,17.7756807 95.2868852,18.25 L95.2868852,26 L92.3901639,26 L92.3901639,7.85737705 Z M112.997541,26.3557377 C111.947263,26.3557377 111.011343,26.1821056 110.189754,25.8348361 C109.368165,25.4875666 108.673637,25.0090194 108.106148,24.3991803 C107.538658,23.7893412 107.106695,23.0609332 106.810246,22.2139344 C106.513796,21.3669357 106.365574,20.435251 106.365574,19.4188525 C106.365574,18.4193939 106.513796,17.4961791 106.810246,16.6491803 C107.106695,15.8021816 107.538658,15.0737735 108.106148,14.4639344 C108.673637,13.8540953 109.368165,13.3755482 110.189754,13.0282787 C111.011343,12.6810092 111.947263,12.507377 112.997541,12.507377 C114.047819,12.507377 114.983739,12.6810092 115.805328,13.0282787 C116.626917,13.3755482 117.321445,13.8540953 117.888934,14.4639344 C118.456424,15.0737735 118.888386,15.8021816 119.184836,16.6491803 C119.481286,17.4961791 119.629508,18.4193939 119.629508,19.4188525 C119.629508,20.435251 119.481286,21.3669357 119.184836,22.2139344 C118.888386,23.0609332 118.456424,23.7893412 117.888934,24.3991803 C117.321445,25.0090194 116.626917,25.4875666 115.805328,25.8348361 C114.983739,26.1821056 114.047819,26.3557377 112.997541,26.3557377 L112.997541,26.3557377 Z M112.997541,24.0688525 C113.64126,24.0688525 114.200271,23.9333347 114.67459,23.6622951 C115.148909,23.3912555 115.538523,23.0355213 115.843443,22.595082 C116.148362,22.1546426 116.372813,21.6591558 116.516803,21.1086066 C116.660793,20.5580574 116.732787,19.9948116 116.732787,19.4188525 C116.732787,18.8598333 116.660793,18.3008225 116.516803,17.7418033 C116.372813,17.1827841 116.148362,16.6872972 115.843443,16.2553279 C115.538523,15.8233585 115.148909,15.4718593 114.67459,15.2008197 C114.200271,14.9297801 113.64126,14.7942623 112.997541,14.7942623 C112.353822,14.7942623 111.794811,14.9297801 111.320492,15.2008197 C110.846172,15.4718593 110.456559,15.8233585 110.151639,16.2553279 C109.84672,16.6872972 109.622268,17.1827841 109.478279,17.7418033 C109.334289,18.3008225 109.262295,18.8598333 109.262295,19.4188525 C109.262295,19.9948116 109.334289,20.5580574 109.478279,21.1086066 C109.622268,21.6591558 109.84672,22.1546426 110.151639,22.595082 C110.456559,23.0355213 110.846172,23.3912555 111.320492,23.6622951 C111.794811,23.9333347 112.353822,24.0688525 112.997541,24.0688525 L112.997541,24.0688525 Z M122.043443,12.8631148 L124.787705,12.8631148 L124.787705,14.692623 L124.863934,14.692623 C125.084154,14.3707634 125.32131,14.0743183 125.57541,13.8032787 C125.829509,13.5322391 126.11325,13.3035528 126.426639,13.1172131 C126.740029,12.9308734 127.099998,12.7826508 127.506557,12.672541 C127.913117,12.5624311 128.378959,12.507377 128.904098,12.507377 C129.700277,12.507377 130.44139,12.6852441 131.127459,13.0409836 C131.813528,13.3967231 132.300545,13.947264 132.588525,14.692623 C133.079784,14.0150239 133.647265,13.4814227 134.290984,13.0918033 C134.934703,12.7021838 135.739339,12.507377 136.704918,12.507377 C138.093996,12.507377 139.173903,12.8461715 139.944672,13.5237705 C140.715441,14.2013695 141.10082,15.3363308 141.10082,16.9286885 L141.10082,26 L138.204098,26 L138.204098,18.3262295 C138.204098,17.8010903 138.187159,17.3225431 138.153279,16.8905738 C138.119399,16.4586044 138.021995,16.0859305 137.861066,15.772541 C137.700136,15.4591514 137.458745,15.2177604 137.136885,15.0483607 C136.815026,14.8789609 136.374593,14.7942623 135.815574,14.7942623 C134.833055,14.7942623 134.121587,15.0991773 133.681148,15.7090164 C133.240708,16.3188555 133.020492,17.1827813 133.020492,18.3008197 L133.020492,26 L130.12377,26 L130.12377,17.5639344 C130.12377,16.6491758 129.958608,15.9588821 129.628279,15.4930328 C129.297949,15.0271835 128.692354,14.7942623 127.811475,14.7942623 C127.438796,14.7942623 127.078827,14.870491 126.731557,15.0229508 C126.384288,15.1754106 126.079373,15.395627 125.816803,15.6836066 C125.554234,15.9715861 125.342487,16.3273203 125.181557,16.7508197 C125.020628,17.1743191 124.940164,17.6571011 124.940164,18.1991803 L124.940164,26 L122.043443,26 L122.043443,12.8631148 Z M144.378689,22.5696721 L147.910656,22.5696721 L147.910656,26 L144.378689,26 L144.378689,22.5696721 Z M162.216393,23.0778689 C162.216393,23.4336083 162.262978,23.6877042 162.356148,23.8401639 C162.449317,23.9926237 162.631419,24.0688525 162.902459,24.0688525 L163.207377,24.0688525 C163.325957,24.0688525 163.461475,24.0519127 163.613934,24.0180328 L163.613934,26.0254098 C163.512295,26.0592898 163.381012,26.0974042 163.220082,26.1397541 C163.059152,26.182104 162.89399,26.2202184 162.72459,26.2540984 C162.55519,26.2879783 162.385793,26.3133879 162.216393,26.3303279 C162.046994,26.3472678 161.903006,26.3557377 161.784426,26.3557377 C161.191527,26.3557377 160.700275,26.2371597 160.310656,26 C159.921036,25.7628403 159.66694,25.3478172 159.548361,24.754918 C158.972401,25.3139372 158.265168,25.7204905 157.426639,25.9745902 C156.588111,26.2286898 155.779239,26.3557377 155,26.3557377 C154.407101,26.3557377 153.83962,26.275274 153.297541,26.1143443 C152.755462,25.9534145 152.276915,25.7162584 151.861885,25.4028689 C151.446856,25.0894793 151.116531,24.6913959 150.870902,24.2086066 C150.625272,23.7258173 150.502459,23.1625715 150.502459,22.5188525 C150.502459,21.7057336 150.650682,21.0450845 150.947131,20.5368852 C151.243581,20.028686 151.633194,19.6306025 152.115984,19.342623 C152.598773,19.0546434 153.140844,18.8471318 153.742213,18.720082 C154.343582,18.5930322 154.949177,18.4956288 155.559016,18.4278689 C156.084156,18.326229 156.583877,18.2542352 157.058197,18.2118852 C157.532516,18.1695353 157.951774,18.0975415 158.315984,17.9959016 C158.680193,17.8942618 158.968168,17.7375694 159.179918,17.5258197 C159.391668,17.31407 159.497541,16.9964502 159.497541,16.5729508 C159.497541,16.2002714 159.408607,15.8953564 159.230738,15.6581967 C159.052868,15.4210371 158.832652,15.2389351 158.570082,15.1118852 C158.307512,14.9848354 158.015302,14.9001368 157.693443,14.8577869 C157.371583,14.8154369 157.066668,14.7942623 156.778689,14.7942623 C155.96557,14.7942623 155.296451,14.9636595 154.771311,15.302459 C154.246172,15.6412585 153.949727,16.1663899 153.881967,16.8778689 L150.985246,16.8778689 C151.036066,16.0308701 151.239342,15.3278716 151.595082,14.7688525 C151.950821,14.2098333 152.403959,13.7609307 152.954508,13.4221311 C153.505057,13.0833316 154.127592,12.8461755 154.822131,12.7106557 C155.51667,12.5751359 156.228138,12.507377 156.956557,12.507377 C157.600276,12.507377 158.235516,12.5751359 158.862295,12.7106557 C159.489074,12.8461755 160.05232,13.0663919 160.552049,13.3713115 C161.051778,13.676231 161.454097,14.0700796 161.759016,14.5528689 C162.063936,15.0356582 162.216393,15.6243135 162.216393,16.3188525 L162.216393,23.0778689 Z M159.319672,19.4188525 C158.879233,19.706832 158.337162,19.8804642 157.693443,19.9397541 C157.049724,19.999044 156.406014,20.0879775 155.762295,20.2065574 C155.457376,20.2573773 155.16093,20.3293711 154.872951,20.422541 C154.584971,20.5157108 154.330875,20.6427588 154.110656,20.8036885 C153.890436,20.9646183 153.716804,21.1763648 153.589754,21.4389344 C153.462704,21.701504 153.39918,22.0191238 153.39918,22.3918033 C153.39918,22.7136628 153.492349,22.9846984 153.678689,23.204918 C153.865028,23.4251377 154.08948,23.5987699 154.352049,23.7258197 C154.614619,23.8528695 154.902594,23.941803 155.215984,23.992623 C155.529373,24.0434429 155.813113,24.0688525 156.067213,24.0688525 C156.389073,24.0688525 156.736337,24.0265032 157.109016,23.9418033 C157.481696,23.8571034 157.833195,23.7131158 158.163525,23.5098361 C158.493854,23.3065564 158.769125,23.0482256 158.989344,22.7348361 C159.209564,22.4214465 159.319672,22.0360679 159.319672,21.5786885 L159.319672,19.4188525 Z M167.527049,21.7819672 C167.611749,22.628966 167.933604,23.2218562 168.492623,23.5606557 C169.051642,23.8994552 169.720761,24.0688525 170.5,24.0688525 C170.77104,24.0688525 171.08019,24.0476778 171.427459,24.0053279 C171.774729,23.9629779 172.100818,23.8825143 172.405738,23.7639344 C172.710657,23.6453546 172.960518,23.4717225 173.155328,23.2430328 C173.350138,23.0143431 173.439071,22.7136631 173.422131,22.3409836 C173.405191,21.9683041 173.269673,21.6633892 173.015574,21.4262295 C172.761474,21.1890699 172.435385,20.998498 172.037295,20.8545082 C171.639206,20.7105184 171.186068,20.5877054 170.677869,20.4860656 C170.16967,20.3844257 169.653008,20.2743175 169.127869,20.1557377 C168.58579,20.0371579 168.064893,19.8931702 167.565164,19.7237705 C167.065435,19.5543707 166.616532,19.3256845 166.218443,19.0377049 C165.820353,18.7497253 165.502733,18.3812864 165.265574,17.932377 C165.028414,17.4834677 164.909836,16.9286918 164.909836,16.2680328 C164.909836,15.5565538 165.083468,14.9594286 165.430738,14.4766393 C165.778007,13.99385 166.21844,13.6042365 166.752049,13.3077869 C167.285658,13.0113373 167.878549,12.8038257 168.530738,12.6852459 C169.182927,12.5666661 169.805462,12.507377 170.398361,12.507377 C171.07596,12.507377 171.723904,12.5793709 172.342213,12.7233607 C172.960522,12.8673504 173.519533,13.1002716 174.019262,13.4221311 C174.518992,13.7439907 174.934015,14.1632488 175.264344,14.679918 C175.594674,15.1965873 175.802185,15.819122 175.886885,16.547541 L172.863115,16.547541 C172.727595,15.853002 172.409975,15.3871597 171.910246,15.15 C171.410517,14.9128403 170.838801,14.7942623 170.195082,14.7942623 C169.991802,14.7942623 169.750411,14.811202 169.470902,14.845082 C169.191392,14.8789619 168.928826,14.9424859 168.683197,15.0356557 C168.437567,15.1288256 168.230055,15.2643434 168.060656,15.4422131 C167.891256,15.6200829 167.806557,15.853004 167.806557,16.1409836 C167.806557,16.4967231 167.92937,16.7846984 168.175,17.004918 C168.42063,17.2251377 168.742484,17.4072397 169.140574,17.5512295 C169.538663,17.6952193 169.991801,17.8180323 170.5,17.9196721 C171.008199,18.021312 171.533331,18.1314202 172.07541,18.25 C172.600549,18.3685798 173.117211,18.5125675 173.62541,18.6819672 C174.133609,18.851367 174.586747,19.0800532 174.984836,19.3680328 C175.382925,19.6560124 175.70478,20.0202164 175.95041,20.4606557 C176.196039,20.9010951 176.318852,21.4431662 176.318852,22.0868852 C176.318852,22.8661241 176.140985,23.5267732 175.785246,24.0688525 C175.429506,24.6109317 174.967899,25.0513644 174.40041,25.3901639 C173.832921,25.7289634 173.201916,25.9745894 172.507377,26.1270492 C171.812838,26.279509 171.126779,26.3557377 170.44918,26.3557377 C169.619122,26.3557377 168.852599,26.2625692 168.14959,26.0762295 C167.446581,25.8898898 166.836751,25.6061494 166.320082,25.225 C165.803413,24.8438506 165.396859,24.3695384 165.10041,23.8020492 C164.80396,23.23456 164.647268,22.5612061 164.630328,21.7819672 L167.527049,21.7819672 Z" id="JordanThom.as" fill="#000000"></path>
                </g>
            </g>
        </g>
    </g>
</svg>